<?xml version="1.0" encoding="UTF-8" standalone="no"?>
<!DOCTYPE svg PUBLIC "-//W3C//DTD SVG 1.1//EN"
 "http://www.w3.org/Graphics/SVG/1.1/DTD/svg11.dtd">
<!-- Generated by graphviz version 2.43.0 (0)
 -->
<!-- Title: AST Pages: 1 -->
<svg width="1135pt" height="836pt"
 viewBox="0.00 0.00 1135.49 836.00" xmlns="http://www.w3.org/2000/svg" xmlns:xlink="http://www.w3.org/1999/xlink">
<g id="graph0" class="graph" transform="scale(1 1) rotate(0) translate(4 832)">
<title>AST</title>
<polygon fill="white" stroke="transparent" points="-4,4 -4,-832 1131.49,-832 1131.49,4 -4,4"/>
<!-- node_0x5aa170d152e0 -->
<g id="node1" class="node">
<title>node_0x5aa170d152e0</title>
<ellipse fill="#e8f0fe" stroke="black" cx="297.8" cy="-810" rx="27" ry="18"/>
<text text-anchor="middle" x="297.8" y="-806.3" font-family="Arial" font-size="14.00">P</text>
</g>
<!-- node_0x5aa170d15290 -->
<g id="node2" class="node">
<title>node_0x5aa170d15290</title>
<ellipse fill="#e8f0fe" stroke="black" cx="297.8" cy="-738" rx="101.28" ry="18"/>
<text text-anchor="middle" x="297.8" y="-734.3" font-family="Arial" font-size="14.00">METHOD_DECL_LIST</text>
</g>
<!-- node_0x5aa170d152e0&#45;&gt;node_0x5aa170d15290 -->
<g id="edge1" class="edge">
<title>node_0x5aa170d152e0&#45;&gt;node_0x5aa170d15290</title>
<path fill="none" stroke="#555555" d="M297.8,-791.7C297.8,-783.39 297.8,-773.28 297.8,-764.14"/>
<polygon fill="#555555" stroke="#555555" points="300.6,-764.1 297.8,-756.1 295,-764.1 300.6,-764.1"/>
</g>
<!-- node_0x5aa170d148f0 -->
<g id="node3" class="node">
<title>node_0x5aa170d148f0</title>
<ellipse fill="#e8f0fe" stroke="black" cx="199.8" cy="-666" rx="77.99" ry="18"/>
<text text-anchor="middle" x="199.8" y="-662.3" font-family="Arial" font-size="14.00">METHOD_DECL</text>
</g>
<!-- node_0x5aa170d15290&#45;&gt;node_0x5aa170d148f0 -->
<g id="edge2" class="edge">
<title>node_0x5aa170d15290&#45;&gt;node_0x5aa170d148f0</title>
<path fill="none" stroke="#555555" d="M274.57,-720.41C261.05,-710.75 243.87,-698.48 229.38,-688.13"/>
<polygon fill="#555555" stroke="#555555" points="230.65,-685.6 222.52,-683.23 227.4,-690.16 230.65,-685.6"/>
</g>
<!-- node_0x5aa170d15240 -->
<g id="node14" class="node">
<title>node_0x5aa170d15240</title>
<ellipse fill="#e8f0fe" stroke="black" cx="447.8" cy="-666" rx="101.28" ry="18"/>
<text text-anchor="middle" x="447.8" y="-662.3" font-family="Arial" font-size="14.00">METHOD_DECL_LIST</text>
</g>
<!-- node_0x5aa170d15290&#45;&gt;node_0x5aa170d15240 -->
<g id="edge13" class="edge">
<title>node_0x5aa170d15290&#45;&gt;node_0x5aa170d15240</title>
<path fill="none" stroke="#555555" d="M332.21,-720.94C354.22,-710.67 382.9,-697.28 406.19,-686.42"/>
<polygon fill="#555555" stroke="#555555" points="407.48,-688.91 413.54,-682.98 405.11,-683.83 407.48,-688.91"/>
</g>
<!-- node_0x5aa170d14510 -->
<g id="node4" class="node">
<title>node_0x5aa170d14510</title>
<ellipse fill="#e8f0fe" stroke="black" cx="33.8" cy="-594" rx="33.6" ry="18"/>
<text text-anchor="middle" x="33.8" y="-590.3" font-family="Arial" font-size="14.00">TYPE</text>
</g>
<!-- node_0x5aa170d148f0&#45;&gt;node_0x5aa170d14510 -->
<g id="edge3" class="edge">
<title>node_0x5aa170d148f0&#45;&gt;node_0x5aa170d14510</title>
<path fill="none" stroke="#555555" d="M164.19,-649.98C135.45,-637.87 95.32,-620.94 67.19,-609.08"/>
<polygon fill="#555555" stroke="#555555" points="68.05,-606.41 59.59,-605.88 65.88,-611.57 68.05,-606.41"/>
</g>
<!-- node_0x5aa170d14880 -->
<g id="node5" class="node">
<title>node_0x5aa170d14880</title>
<ellipse fill="#e8f0fe" stroke="black" cx="112.8" cy="-594" rx="27" ry="18"/>
<text text-anchor="middle" x="112.8" y="-590.3" font-family="Arial" font-size="14.00">ID</text>
</g>
<!-- node_0x5aa170d148f0&#45;&gt;node_0x5aa170d14880 -->
<g id="edge4" class="edge">
<title>node_0x5aa170d148f0&#45;&gt;node_0x5aa170d14880</title>
<path fill="none" stroke="#555555" d="M179.18,-648.41C166.14,-637.92 149.26,-624.34 135.79,-613.5"/>
<polygon fill="#555555" stroke="#555555" points="137.47,-611.26 129.48,-608.42 133.96,-615.62 137.47,-611.26"/>
</g>
<!-- node_0x5aa170d14660 -->
<g id="node6" class="node">
<title>node_0x5aa170d14660</title>
<ellipse fill="#e8f0fe" stroke="black" cx="199.8" cy="-594" rx="42.49" ry="18"/>
<text text-anchor="middle" x="199.8" y="-590.3" font-family="Arial" font-size="14.00">PARAM</text>
</g>
<!-- node_0x5aa170d148f0&#45;&gt;node_0x5aa170d14660 -->
<g id="edge5" class="edge">
<title>node_0x5aa170d148f0&#45;&gt;node_0x5aa170d14660</title>
<path fill="none" stroke="#555555" d="M199.8,-647.7C199.8,-639.39 199.8,-629.28 199.8,-620.14"/>
<polygon fill="#555555" stroke="#555555" points="202.6,-620.1 199.8,-612.1 197,-620.1 202.6,-620.1"/>
</g>
<!-- node_0x5aa170d14830 -->
<g id="node9" class="node">
<title>node_0x5aa170d14830</title>
<ellipse fill="#e8f0fe" stroke="black" cx="329.8" cy="-594" rx="69.59" ry="18"/>
<text text-anchor="middle" x="329.8" y="-590.3" font-family="Arial" font-size="14.00">STATEMENTS</text>
</g>
<!-- node_0x5aa170d148f0&#45;&gt;node_0x5aa170d14830 -->
<g id="edge8" class="edge">
<title>node_0x5aa170d148f0&#45;&gt;node_0x5aa170d14830</title>
<path fill="none" stroke="#555555" d="M228.97,-649.29C248.17,-638.95 273.44,-625.35 293.88,-614.34"/>
<polygon fill="#555555" stroke="#555555" points="295.45,-616.67 301.17,-610.42 292.8,-611.74 295.45,-616.67"/>
</g>
<!-- node_0x5aa170d14580 -->
<g id="node7" class="node">
<title>node_0x5aa170d14580</title>
<ellipse fill="#e8f0fe" stroke="black" cx="136.8" cy="-522" rx="33.6" ry="18"/>
<text text-anchor="middle" x="136.8" y="-518.3" font-family="Arial" font-size="14.00">TYPE</text>
</g>
<!-- node_0x5aa170d14660&#45;&gt;node_0x5aa170d14580 -->
<g id="edge6" class="edge">
<title>node_0x5aa170d14660&#45;&gt;node_0x5aa170d14580</title>
<path fill="none" stroke="#555555" d="M185.19,-576.76C176.64,-567.27 165.73,-555.15 156.44,-544.82"/>
<polygon fill="#555555" stroke="#555555" points="158.33,-542.74 150.9,-538.67 154.17,-546.49 158.33,-542.74"/>
</g>
<!-- node_0x5aa170d145f0 -->
<g id="node8" class="node">
<title>node_0x5aa170d145f0</title>
<ellipse fill="#e8f0fe" stroke="black" cx="215.8" cy="-522" rx="27" ry="18"/>
<text text-anchor="middle" x="215.8" y="-518.3" font-family="Arial" font-size="14.00">ID</text>
</g>
<!-- node_0x5aa170d14660&#45;&gt;node_0x5aa170d145f0 -->
<g id="edge7" class="edge">
<title>node_0x5aa170d14660&#45;&gt;node_0x5aa170d145f0</title>
<path fill="none" stroke="#555555" d="M203.67,-576.05C205.59,-567.67 207.94,-557.38 210.06,-548.1"/>
<polygon fill="#555555" stroke="#555555" points="212.8,-548.7 211.85,-540.28 207.34,-547.45 212.8,-548.7"/>
</g>
<!-- node_0x5aa170d147e0 -->
<g id="node10" class="node">
<title>node_0x5aa170d147e0</title>
<ellipse fill="#e8f0fe" stroke="black" cx="326.8" cy="-522" rx="47.39" ry="18"/>
<text text-anchor="middle" x="326.8" y="-518.3" font-family="Arial" font-size="14.00">RETURN</text>
</g>
<!-- node_0x5aa170d14830&#45;&gt;node_0x5aa170d147e0 -->
<g id="edge9" class="edge">
<title>node_0x5aa170d14830&#45;&gt;node_0x5aa170d147e0</title>
<path fill="none" stroke="#555555" d="M329.06,-575.7C328.7,-567.39 328.27,-557.28 327.87,-548.14"/>
<polygon fill="#555555" stroke="#555555" points="330.67,-547.98 327.53,-540.1 325.08,-548.22 330.67,-547.98"/>
</g>
<!-- node_0x5aa170d14790 -->
<g id="node11" class="node">
<title>node_0x5aa170d14790</title>
<ellipse fill="#e8f0fe" stroke="black" cx="326.8" cy="-450" rx="27" ry="18"/>
<text text-anchor="middle" x="326.8" y="-446.3" font-family="Arial" font-size="14.00">+</text>
</g>
<!-- node_0x5aa170d147e0&#45;&gt;node_0x5aa170d14790 -->
<g id="edge10" class="edge">
<title>node_0x5aa170d147e0&#45;&gt;node_0x5aa170d14790</title>
<path fill="none" stroke="#555555" d="M326.8,-503.7C326.8,-495.39 326.8,-485.28 326.8,-476.14"/>
<polygon fill="#555555" stroke="#555555" points="329.6,-476.1 326.8,-468.1 324,-476.1 329.6,-476.1"/>
</g>
<!-- node_0x5aa170d146d0 -->
<g id="node12" class="node">
<title>node_0x5aa170d146d0</title>
<ellipse fill="#e8f0fe" stroke="black" cx="240.8" cy="-378" rx="27" ry="18"/>
<text text-anchor="middle" x="240.8" y="-374.3" font-family="Arial" font-size="14.00">ID</text>
</g>
<!-- node_0x5aa170d14790&#45;&gt;node_0x5aa170d146d0 -->
<g id="edge11" class="edge">
<title>node_0x5aa170d14790&#45;&gt;node_0x5aa170d146d0</title>
<path fill="none" stroke="#555555" d="M310.22,-435.5C297.01,-424.75 278.38,-409.59 263.74,-397.67"/>
<polygon fill="#555555" stroke="#555555" points="265.3,-395.33 257.33,-392.46 261.76,-399.68 265.3,-395.33"/>
</g>
<!-- node_0x5aa170d14740 -->
<g id="node13" class="node">
<title>node_0x5aa170d14740</title>
<ellipse fill="#e8f0fe" stroke="black" cx="351.8" cy="-378" rx="65.79" ry="18"/>
<text text-anchor="middle" x="351.8" y="-374.3" font-family="Arial" font-size="14.00">INT_LITERAL</text>
</g>
<!-- node_0x5aa170d14790&#45;&gt;node_0x5aa170d14740 -->
<g id="edge12" class="edge">
<title>node_0x5aa170d14790&#45;&gt;node_0x5aa170d14740</title>
<path fill="none" stroke="#555555" d="M332.72,-432.41C335.79,-423.82 339.6,-413.16 343,-403.63"/>
<polygon fill="#555555" stroke="#555555" points="345.69,-404.43 345.74,-395.96 340.41,-402.55 345.69,-404.43"/>
</g>
<!-- node_0x5aa170d151f0 -->
<g id="node15" class="node">
<title>node_0x5aa170d151f0</title>
<ellipse fill="#e8f0fe" stroke="black" cx="499.8" cy="-594" rx="77.99" ry="18"/>
<text text-anchor="middle" x="499.8" y="-590.3" font-family="Arial" font-size="14.00">METHOD_DECL</text>
</g>
<!-- node_0x5aa170d15240&#45;&gt;node_0x5aa170d151f0 -->
<g id="edge14" class="edge">
<title>node_0x5aa170d15240&#45;&gt;node_0x5aa170d151f0</title>
<path fill="none" stroke="#555555" d="M460.38,-648.05C467.03,-639.11 475.28,-628.01 482.51,-618.27"/>
<polygon fill="#555555" stroke="#555555" points="484.8,-619.88 487.33,-611.79 480.31,-616.54 484.8,-619.88"/>
</g>
<!-- node_0x5aa170d15130 -->
<g id="node16" class="node">
<title>node_0x5aa170d15130</title>
<ellipse fill="#e8f0fe" stroke="black" cx="424.8" cy="-522" rx="32.49" ry="18"/>
<text text-anchor="middle" x="424.8" y="-518.3" font-family="Arial" font-size="14.00">VOID</text>
</g>
<!-- node_0x5aa170d151f0&#45;&gt;node_0x5aa170d15130 -->
<g id="edge15" class="edge">
<title>node_0x5aa170d151f0&#45;&gt;node_0x5aa170d15130</title>
<path fill="none" stroke="#555555" d="M482.02,-576.41C471.5,-566.59 458.07,-554.06 446.87,-543.6"/>
<polygon fill="#555555" stroke="#555555" points="448.67,-541.45 440.91,-538.04 444.85,-545.54 448.67,-541.45"/>
</g>
<!-- node_0x5aa170d15180 -->
<g id="node17" class="node">
<title>node_0x5aa170d15180</title>
<ellipse fill="#e8f0fe" stroke="black" cx="501.8" cy="-522" rx="27" ry="18"/>
<text text-anchor="middle" x="501.8" y="-518.3" font-family="Arial" font-size="14.00">ID</text>
</g>
<!-- node_0x5aa170d151f0&#45;&gt;node_0x5aa170d15180 -->
<g id="edge16" class="edge">
<title>node_0x5aa170d151f0&#45;&gt;node_0x5aa170d15180</title>
<path fill="none" stroke="#555555" d="M500.29,-575.7C500.53,-567.39 500.82,-557.28 501.08,-548.14"/>
<polygon fill="#555555" stroke="#555555" points="503.88,-548.18 501.31,-540.1 498.28,-548.02 503.88,-548.18"/>
</g>
<!-- node_0x5aa170d150e0 -->
<g id="node18" class="node">
<title>node_0x5aa170d150e0</title>
<ellipse fill="#e8f0fe" stroke="black" cx="622.8" cy="-522" rx="76.09" ry="18"/>
<text text-anchor="middle" x="622.8" y="-518.3" font-family="Arial" font-size="14.00">BLOCK_ELEMS</text>
</g>
<!-- node_0x5aa170d151f0&#45;&gt;node_0x5aa170d150e0 -->
<g id="edge17" class="edge">
<title>node_0x5aa170d151f0&#45;&gt;node_0x5aa170d150e0</title>
<path fill="none" stroke="#555555" d="M527.71,-577.12C545.56,-566.96 568.85,-553.7 587.92,-542.85"/>
<polygon fill="#555555" stroke="#555555" points="589.43,-545.21 595,-538.82 586.66,-540.34 589.43,-545.21"/>
</g>
<!-- node_0x5aa170d14a40 -->
<g id="node19" class="node">
<title>node_0x5aa170d14a40</title>
<ellipse fill="#e8f0fe" stroke="black" cx="605.8" cy="-450" rx="56.59" ry="18"/>
<text text-anchor="middle" x="605.8" y="-446.3" font-family="Arial" font-size="14.00">VAR_DECL</text>
</g>
<!-- node_0x5aa170d150e0&#45;&gt;node_0x5aa170d14a40 -->
<g id="edge18" class="edge">
<title>node_0x5aa170d150e0&#45;&gt;node_0x5aa170d14a40</title>
<path fill="none" stroke="#555555" d="M618.59,-503.7C616.58,-495.39 614.12,-485.28 611.9,-476.14"/>
<polygon fill="#555555" stroke="#555555" points="614.56,-475.22 609.95,-468.1 609.12,-476.54 614.56,-475.22"/>
</g>
<!-- node_0x5aa170d15090 -->
<g id="node22" class="node">
<title>node_0x5aa170d15090</title>
<ellipse fill="#e8f0fe" stroke="black" cx="749.8" cy="-450" rx="69.59" ry="18"/>
<text text-anchor="middle" x="749.8" y="-446.3" font-family="Arial" font-size="14.00">STATEMENTS</text>
</g>
<!-- node_0x5aa170d150e0&#45;&gt;node_0x5aa170d15090 -->
<g id="edge21" class="edge">
<title>node_0x5aa170d150e0&#45;&gt;node_0x5aa170d15090</title>
<path fill="none" stroke="#555555" d="M651.3,-505.29C669.93,-495.02 694.4,-481.53 714.29,-470.57"/>
<polygon fill="#555555" stroke="#555555" points="715.74,-472.97 721.39,-466.66 713.03,-468.07 715.74,-472.97"/>
</g>
<!-- node_0x5aa170d14960 -->
<g id="node20" class="node">
<title>node_0x5aa170d14960</title>
<ellipse fill="#e8f0fe" stroke="black" cx="535.8" cy="-378" rx="33.6" ry="18"/>
<text text-anchor="middle" x="535.8" y="-374.3" font-family="Arial" font-size="14.00">TYPE</text>
</g>
<!-- node_0x5aa170d14a40&#45;&gt;node_0x5aa170d14960 -->
<g id="edge19" class="edge">
<title>node_0x5aa170d14a40&#45;&gt;node_0x5aa170d14960</title>
<path fill="none" stroke="#555555" d="M589.21,-432.41C579.61,-422.81 567.43,-410.63 557.12,-400.33"/>
<polygon fill="#555555" stroke="#555555" points="558.94,-398.19 551.31,-394.51 554.98,-402.15 558.94,-398.19"/>
</g>
<!-- node_0x5aa170d149d0 -->
<g id="node21" class="node">
<title>node_0x5aa170d149d0</title>
<ellipse fill="#e8f0fe" stroke="black" cx="614.8" cy="-378" rx="27" ry="18"/>
<text text-anchor="middle" x="614.8" y="-374.3" font-family="Arial" font-size="14.00">ID</text>
</g>
<!-- node_0x5aa170d14a40&#45;&gt;node_0x5aa170d149d0 -->
<g id="edge20" class="edge">
<title>node_0x5aa170d14a40&#45;&gt;node_0x5aa170d149d0</title>
<path fill="none" stroke="#555555" d="M608.02,-431.7C609.09,-423.39 610.39,-413.28 611.56,-404.14"/>
<polygon fill="#555555" stroke="#555555" points="614.35,-404.4 612.6,-396.1 608.8,-403.68 614.35,-404.4"/>
</g>
<!-- node_0x5aa170d14b70 -->
<g id="node23" class="node">
<title>node_0x5aa170d14b70</title>
<ellipse fill="#e8f0fe" stroke="black" cx="740.8" cy="-378" rx="63.89" ry="18"/>
<text text-anchor="middle" x="740.8" y="-374.3" font-family="Arial" font-size="14.00">ASSIGMENT</text>
</g>
<!-- node_0x5aa170d15090&#45;&gt;node_0x5aa170d14b70 -->
<g id="edge22" class="edge">
<title>node_0x5aa170d15090&#45;&gt;node_0x5aa170d14b70</title>
<path fill="none" stroke="#555555" d="M747.57,-431.7C746.5,-423.39 745.2,-413.28 744.03,-404.14"/>
<polygon fill="#555555" stroke="#555555" points="746.79,-403.68 743,-396.1 741.24,-404.4 746.79,-403.68"/>
</g>
<!-- node_0x5aa170d15040 -->
<g id="node26" class="node">
<title>node_0x5aa170d15040</title>
<ellipse fill="#e8f0fe" stroke="black" cx="891.8" cy="-378" rx="69.59" ry="18"/>
<text text-anchor="middle" x="891.8" y="-374.3" font-family="Arial" font-size="14.00">STATEMENTS</text>
</g>
<!-- node_0x5aa170d15090&#45;&gt;node_0x5aa170d15040 -->
<g id="edge25" class="edge">
<title>node_0x5aa170d15090&#45;&gt;node_0x5aa170d15040</title>
<path fill="none" stroke="#555555" d="M780.61,-433.81C802.1,-423.22 830.92,-409.01 853.83,-397.72"/>
<polygon fill="#555555" stroke="#555555" points="855.11,-400.21 861.05,-394.16 852.63,-395.19 855.11,-400.21"/>
</g>
<!-- node_0x5aa170d14b00 -->
<g id="node24" class="node">
<title>node_0x5aa170d14b00</title>
<ellipse fill="#e8f0fe" stroke="black" cx="640.8" cy="-306" rx="27" ry="18"/>
<text text-anchor="middle" x="640.8" y="-302.3" font-family="Arial" font-size="14.00">ID</text>
</g>
<!-- node_0x5aa170d14b70&#45;&gt;node_0x5aa170d14b00 -->
<g id="edge23" class="edge">
<title>node_0x5aa170d14b70&#45;&gt;node_0x5aa170d14b00</title>
<path fill="none" stroke="#555555" d="M718.11,-361.12C702.37,-350.1 681.44,-335.45 665.32,-324.17"/>
<polygon fill="#555555" stroke="#555555" points="666.9,-321.85 658.74,-319.56 663.69,-326.44 666.9,-321.85"/>
</g>
<!-- node_0x5aa170d14ab0 -->
<g id="node25" class="node">
<title>node_0x5aa170d14ab0</title>
<ellipse fill="#e8f0fe" stroke="black" cx="751.8" cy="-306" rx="65.79" ry="18"/>
<text text-anchor="middle" x="751.8" y="-302.3" font-family="Arial" font-size="14.00">INT_LITERAL</text>
</g>
<!-- node_0x5aa170d14b70&#45;&gt;node_0x5aa170d14ab0 -->
<g id="edge24" class="edge">
<title>node_0x5aa170d14b70&#45;&gt;node_0x5aa170d14ab0</title>
<path fill="none" stroke="#555555" d="M743.52,-359.7C744.82,-351.39 746.41,-341.28 747.85,-332.14"/>
<polygon fill="#555555" stroke="#555555" points="750.63,-332.44 749.11,-324.1 745.1,-331.57 750.63,-332.44"/>
</g>
<!-- node_0x5aa170d14ff0 -->
<g id="node27" class="node">
<title>node_0x5aa170d14ff0</title>
<ellipse fill="#e8f0fe" stroke="black" cx="891.8" cy="-306" rx="46.29" ry="18"/>
<text text-anchor="middle" x="891.8" y="-302.3" font-family="Arial" font-size="14.00">IF_ELSE</text>
</g>
<!-- node_0x5aa170d15040&#45;&gt;node_0x5aa170d14ff0 -->
<g id="edge26" class="edge">
<title>node_0x5aa170d15040&#45;&gt;node_0x5aa170d14ff0</title>
<path fill="none" stroke="#555555" d="M891.8,-359.7C891.8,-351.39 891.8,-341.28 891.8,-332.14"/>
<polygon fill="#555555" stroke="#555555" points="894.6,-332.1 891.8,-324.1 889,-332.1 894.6,-332.1"/>
</g>
<!-- node_0x5aa170d14ca0 -->
<g id="node28" class="node">
<title>node_0x5aa170d14ca0</title>
<ellipse fill="#e8f0fe" stroke="black" cx="760.8" cy="-234" rx="27" ry="18"/>
<text text-anchor="middle" x="760.8" y="-230.3" font-family="Arial" font-size="14.00">==</text>
</g>
<!-- node_0x5aa170d14ff0&#45;&gt;node_0x5aa170d14ca0 -->
<g id="edge27" class="edge">
<title>node_0x5aa170d14ff0&#45;&gt;node_0x5aa170d14ca0</title>
<path fill="none" stroke="#555555" d="M865.6,-291C843.33,-279.1 811.44,-262.06 788.69,-249.91"/>
<polygon fill="#555555" stroke="#555555" points="789.73,-247.29 781.36,-245.99 787.09,-252.23 789.73,-247.29"/>
</g>
<!-- node_0x5aa170d14d90 -->
<g id="node31" class="node">
<title>node_0x5aa170d14d90</title>
<ellipse fill="#e8f0fe" stroke="black" cx="891.8" cy="-234" rx="69.59" ry="18"/>
<text text-anchor="middle" x="891.8" y="-230.3" font-family="Arial" font-size="14.00">STATEMENTS</text>
</g>
<!-- node_0x5aa170d14ff0&#45;&gt;node_0x5aa170d14d90 -->
<g id="edge30" class="edge">
<title>node_0x5aa170d14ff0&#45;&gt;node_0x5aa170d14d90</title>
<path fill="none" stroke="#555555" d="M891.8,-287.7C891.8,-279.39 891.8,-269.28 891.8,-260.14"/>
<polygon fill="#555555" stroke="#555555" points="894.6,-260.1 891.8,-252.1 889,-260.1 894.6,-260.1"/>
</g>
<!-- node_0x5aa170d14fa0 -->
<g id="node34" class="node">
<title>node_0x5aa170d14fa0</title>
<ellipse fill="#e8f0fe" stroke="black" cx="1049.8" cy="-234" rx="69.59" ry="18"/>
<text text-anchor="middle" x="1049.8" y="-230.3" font-family="Arial" font-size="14.00">STATEMENTS</text>
</g>
<!-- node_0x5aa170d14ff0&#45;&gt;node_0x5aa170d14fa0 -->
<g id="edge33" class="edge">
<title>node_0x5aa170d14ff0&#45;&gt;node_0x5aa170d14fa0</title>
<path fill="none" stroke="#555555" d="M921.15,-292C945.78,-281.08 981.25,-265.37 1008.71,-253.2"/>
<polygon fill="#555555" stroke="#555555" points="1010.04,-255.67 1016.22,-249.87 1007.78,-250.55 1010.04,-255.67"/>
</g>
<!-- node_0x5aa170d14be0 -->
<g id="node29" class="node">
<title>node_0x5aa170d14be0</title>
<ellipse fill="#e8f0fe" stroke="black" cx="649.8" cy="-162" rx="27" ry="18"/>
<text text-anchor="middle" x="649.8" y="-158.3" font-family="Arial" font-size="14.00">ID</text>
</g>
<!-- node_0x5aa170d14ca0&#45;&gt;node_0x5aa170d14be0 -->
<g id="edge28" class="edge">
<title>node_0x5aa170d14ca0&#45;&gt;node_0x5aa170d14be0</title>
<path fill="none" stroke="#555555" d="M741.72,-220.97C723.53,-209.5 696,-192.14 675.81,-179.4"/>
<polygon fill="#555555" stroke="#555555" points="677.26,-177.01 669,-175.11 674.27,-181.75 677.26,-177.01"/>
</g>
<!-- node_0x5aa170d14c50 -->
<g id="node30" class="node">
<title>node_0x5aa170d14c50</title>
<ellipse fill="#e8f0fe" stroke="black" cx="760.8" cy="-162" rx="65.79" ry="18"/>
<text text-anchor="middle" x="760.8" y="-158.3" font-family="Arial" font-size="14.00">INT_LITERAL</text>
</g>
<!-- node_0x5aa170d14ca0&#45;&gt;node_0x5aa170d14c50 -->
<g id="edge29" class="edge">
<title>node_0x5aa170d14ca0&#45;&gt;node_0x5aa170d14c50</title>
<path fill="none" stroke="#555555" d="M760.8,-215.7C760.8,-207.39 760.8,-197.28 760.8,-188.14"/>
<polygon fill="#555555" stroke="#555555" points="763.6,-188.1 760.8,-180.1 758,-188.1 763.6,-188.1"/>
</g>
<!-- node_0x5aa170d14d40 -->
<g id="node32" class="node">
<title>node_0x5aa170d14d40</title>
<ellipse fill="#e8f0fe" stroke="black" cx="891.8" cy="-162" rx="47.39" ry="18"/>
<text text-anchor="middle" x="891.8" y="-158.3" font-family="Arial" font-size="14.00">RETURN</text>
</g>
<!-- node_0x5aa170d14d90&#45;&gt;node_0x5aa170d14d40 -->
<g id="edge31" class="edge">
<title>node_0x5aa170d14d90&#45;&gt;node_0x5aa170d14d40</title>
<path fill="none" stroke="#555555" d="M891.8,-215.7C891.8,-207.39 891.8,-197.28 891.8,-188.14"/>
<polygon fill="#555555" stroke="#555555" points="894.6,-188.1 891.8,-180.1 889,-188.1 894.6,-188.1"/>
</g>
<!-- node_0x5aa170d14cf0 -->
<g id="node33" class="node">
<title>node_0x5aa170d14cf0</title>
<ellipse fill="#e8f0fe" stroke="black" cx="890.8" cy="-90" rx="65.79" ry="18"/>
<text text-anchor="middle" x="890.8" y="-86.3" font-family="Arial" font-size="14.00">INT_LITERAL</text>
</g>
<!-- node_0x5aa170d14d40&#45;&gt;node_0x5aa170d14cf0 -->
<g id="edge32" class="edge">
<title>node_0x5aa170d14d40&#45;&gt;node_0x5aa170d14cf0</title>
<path fill="none" stroke="#555555" d="M891.55,-143.7C891.43,-135.39 891.29,-125.28 891.16,-116.14"/>
<polygon fill="#555555" stroke="#555555" points="893.96,-116.06 891.04,-108.1 888.36,-116.14 893.96,-116.06"/>
</g>
<!-- node_0x5aa170d14f50 -->
<g id="node35" class="node">
<title>node_0x5aa170d14f50</title>
<ellipse fill="#e8f0fe" stroke="black" cx="1050.8" cy="-162" rx="47.39" ry="18"/>
<text text-anchor="middle" x="1050.8" y="-158.3" font-family="Arial" font-size="14.00">RETURN</text>
</g>
<!-- node_0x5aa170d14fa0&#45;&gt;node_0x5aa170d14f50 -->
<g id="edge34" class="edge">
<title>node_0x5aa170d14fa0&#45;&gt;node_0x5aa170d14f50</title>
<path fill="none" stroke="#555555" d="M1050.04,-215.7C1050.16,-207.39 1050.31,-197.28 1050.44,-188.14"/>
<polygon fill="#555555" stroke="#555555" points="1053.24,-188.14 1050.55,-180.1 1047.64,-188.06 1053.24,-188.14"/>
</g>
<!-- node_0x5aa170d14f00 -->
<g id="node36" class="node">
<title>node_0x5aa170d14f00</title>
<ellipse fill="#e8f0fe" stroke="black" cx="1050.8" cy="-90" rx="76.89" ry="18"/>
<text text-anchor="middle" x="1050.8" y="-86.3" font-family="Arial" font-size="14.00">METHOD_CALL</text>
</g>
<!-- node_0x5aa170d14f50&#45;&gt;node_0x5aa170d14f00 -->
<g id="edge35" class="edge">
<title>node_0x5aa170d14f50&#45;&gt;node_0x5aa170d14f00</title>
<path fill="none" stroke="#555555" d="M1050.8,-143.7C1050.8,-135.39 1050.8,-125.28 1050.8,-116.14"/>
<polygon fill="#555555" stroke="#555555" points="1053.6,-116.1 1050.8,-108.1 1048,-116.1 1053.6,-116.1"/>
</g>
<!-- node_0x5aa170d14e90 -->
<g id="node37" class="node">
<title>node_0x5aa170d14e90</title>
<ellipse fill="#e8f0fe" stroke="black" cx="1014.8" cy="-18" rx="27" ry="18"/>
<text text-anchor="middle" x="1014.8" y="-14.3" font-family="Arial" font-size="14.00">ID</text>
</g>
<!-- node_0x5aa170d14f00&#45;&gt;node_0x5aa170d14e90 -->
<g id="edge36" class="edge">
<title>node_0x5aa170d14f00&#45;&gt;node_0x5aa170d14e90</title>
<path fill="none" stroke="#555555" d="M1042.08,-72.05C1037.55,-63.24 1031.94,-52.33 1026.98,-42.69"/>
<polygon fill="#555555" stroke="#555555" points="1029.33,-41.14 1023.18,-35.31 1024.35,-43.7 1029.33,-41.14"/>
</g>
<!-- node_0x5aa170d14e20 -->
<g id="node38" class="node">
<title>node_0x5aa170d14e20</title>
<ellipse fill="#e8f0fe" stroke="black" cx="1086.8" cy="-18" rx="27" ry="18"/>
<text text-anchor="middle" x="1086.8" y="-14.3" font-family="Arial" font-size="14.00">ID</text>
</g>
<!-- node_0x5aa170d14f00&#45;&gt;node_0x5aa170d14e20 -->
<g id="edge37" class="edge">
<title>node_0x5aa170d14f00&#45;&gt;node_0x5aa170d14e20</title>
<path fill="none" stroke="#555555" d="M1059.51,-72.05C1064.04,-63.24 1069.66,-52.33 1074.61,-42.69"/>
<polygon fill="#555555" stroke="#555555" points="1077.24,-43.7 1078.41,-35.31 1072.26,-41.14 1077.24,-43.7"/>
</g>
</g>
</svg>
