<?xml version="1.0" encoding="UTF-8" standalone="no"?>
<!DOCTYPE svg PUBLIC "-//W3C//DTD SVG 1.1//EN"
 "http://www.w3.org/Graphics/SVG/1.1/DTD/svg11.dtd">
<!-- Generated by graphviz version 2.43.0 (0)
 -->
<!-- Title: AST Pages: 1 -->
<svg width="359pt" height="836pt"
 viewBox="0.00 0.00 358.54 836.00" xmlns="http://www.w3.org/2000/svg" xmlns:xlink="http://www.w3.org/1999/xlink">
<g id="graph0" class="graph" transform="scale(1 1) rotate(0) translate(4 832)">
<title>AST</title>
<polygon fill="white" stroke="transparent" points="-4,4 -4,-832 354.54,-832 354.54,4 -4,4"/>
<!-- node_0x5ed3637bcf30 -->
<g id="node1" class="node">
<title>node_0x5ed3637bcf30</title>
<ellipse fill="#e8f0fe" stroke="black" cx="113.5" cy="-810" rx="27" ry="18"/>
<text text-anchor="middle" x="113.5" y="-806.3" font-family="Arial" font-size="14.00">P</text>
</g>
<!-- node_0x5ed3637bcee0 -->
<g id="node2" class="node">
<title>node_0x5ed3637bcee0</title>
<ellipse fill="#e8f0fe" stroke="black" cx="113.5" cy="-738" rx="101.28" ry="18"/>
<text text-anchor="middle" x="113.5" y="-734.3" font-family="Arial" font-size="14.00">METHOD_DECL_LIST</text>
</g>
<!-- node_0x5ed3637bcf30&#45;&gt;node_0x5ed3637bcee0 -->
<g id="edge1" class="edge">
<title>node_0x5ed3637bcf30&#45;&gt;node_0x5ed3637bcee0</title>
<path fill="none" stroke="#555555" d="M113.5,-791.7C113.5,-783.39 113.5,-773.28 113.5,-764.14"/>
<polygon fill="#555555" stroke="#555555" points="116.3,-764.1 113.5,-756.1 110.7,-764.1 116.3,-764.1"/>
</g>
<!-- node_0x5ed3637bce90 -->
<g id="node3" class="node">
<title>node_0x5ed3637bce90</title>
<ellipse fill="#e8f0fe" stroke="black" cx="113.5" cy="-666" rx="77.99" ry="18"/>
<text text-anchor="middle" x="113.5" y="-662.3" font-family="Arial" font-size="14.00">METHOD_DECL</text>
</g>
<!-- node_0x5ed3637bcee0&#45;&gt;node_0x5ed3637bce90 -->
<g id="edge2" class="edge">
<title>node_0x5ed3637bcee0&#45;&gt;node_0x5ed3637bce90</title>
<path fill="none" stroke="#555555" d="M113.5,-719.7C113.5,-711.39 113.5,-701.28 113.5,-692.14"/>
<polygon fill="#555555" stroke="#555555" points="116.3,-692.1 113.5,-684.1 110.7,-692.1 116.3,-692.1"/>
</g>
<!-- node_0x5ed3637bcdd0 -->
<g id="node4" class="node">
<title>node_0x5ed3637bcdd0</title>
<ellipse fill="#e8f0fe" stroke="black" cx="32.5" cy="-594" rx="32.49" ry="18"/>
<text text-anchor="middle" x="32.5" y="-590.3" font-family="Arial" font-size="14.00">VOID</text>
</g>
<!-- node_0x5ed3637bce90&#45;&gt;node_0x5ed3637bcdd0 -->
<g id="edge3" class="edge">
<title>node_0x5ed3637bce90&#45;&gt;node_0x5ed3637bcdd0</title>
<path fill="none" stroke="#555555" d="M94.3,-648.41C82.67,-638.36 67.76,-625.47 55.5,-614.88"/>
<polygon fill="#555555" stroke="#555555" points="57.24,-612.68 49.36,-609.57 53.58,-616.92 57.24,-612.68"/>
</g>
<!-- node_0x5ed3637bce20 -->
<g id="node5" class="node">
<title>node_0x5ed3637bce20</title>
<ellipse fill="#e8f0fe" stroke="black" cx="113.5" cy="-594" rx="30.59" ry="18"/>
<text text-anchor="middle" x="113.5" y="-590.3" font-family="Arial" font-size="14.00">main</text>
</g>
<!-- node_0x5ed3637bce90&#45;&gt;node_0x5ed3637bce20 -->
<g id="edge4" class="edge">
<title>node_0x5ed3637bce90&#45;&gt;node_0x5ed3637bce20</title>
<path fill="none" stroke="#555555" d="M113.5,-647.7C113.5,-639.39 113.5,-629.28 113.5,-620.14"/>
<polygon fill="#555555" stroke="#555555" points="116.3,-620.1 113.5,-612.1 110.7,-620.1 116.3,-620.1"/>
</g>
<!-- node_0x5ed3637bcd80 -->
<g id="node6" class="node">
<title>node_0x5ed3637bcd80</title>
<ellipse fill="#e8f0fe" stroke="black" cx="202.5" cy="-594" rx="40.89" ry="18"/>
<text text-anchor="middle" x="202.5" y="-590.3" font-family="Arial" font-size="14.00">BLOCK</text>
</g>
<!-- node_0x5ed3637bce90&#45;&gt;node_0x5ed3637bcd80 -->
<g id="edge5" class="edge">
<title>node_0x5ed3637bce90&#45;&gt;node_0x5ed3637bcd80</title>
<path fill="none" stroke="#555555" d="M134.59,-648.41C147.31,-638.4 163.6,-625.59 177.04,-615.02"/>
<polygon fill="#555555" stroke="#555555" points="178.82,-617.18 183.38,-610.04 175.36,-612.78 178.82,-617.18"/>
</g>
<!-- node_0x5ed3637bcd30 -->
<g id="node7" class="node">
<title>node_0x5ed3637bcd30</title>
<ellipse fill="#e8f0fe" stroke="black" cx="202.5" cy="-522" rx="76.09" ry="18"/>
<text text-anchor="middle" x="202.5" y="-518.3" font-family="Arial" font-size="14.00">BLOCK_ELEMS</text>
</g>
<!-- node_0x5ed3637bcd80&#45;&gt;node_0x5ed3637bcd30 -->
<g id="edge6" class="edge">
<title>node_0x5ed3637bcd80&#45;&gt;node_0x5ed3637bcd30</title>
<path fill="none" stroke="#555555" d="M202.5,-575.7C202.5,-567.39 202.5,-557.28 202.5,-548.14"/>
<polygon fill="#555555" stroke="#555555" points="205.3,-548.1 202.5,-540.1 199.7,-548.1 205.3,-548.1"/>
</g>
<!-- node_0x5ed3637bca20 -->
<g id="node8" class="node">
<title>node_0x5ed3637bca20</title>
<ellipse fill="#e8f0fe" stroke="black" cx="130.5" cy="-450" rx="56.59" ry="18"/>
<text text-anchor="middle" x="130.5" y="-446.3" font-family="Arial" font-size="14.00">VAR_DECL</text>
</g>
<!-- node_0x5ed3637bcd30&#45;&gt;node_0x5ed3637bca20 -->
<g id="edge7" class="edge">
<title>node_0x5ed3637bcd30&#45;&gt;node_0x5ed3637bca20</title>
<path fill="none" stroke="#555555" d="M185.43,-504.41C175.84,-495.08 163.74,-483.32 153.33,-473.2"/>
<polygon fill="#555555" stroke="#555555" points="155.13,-471.04 147.44,-467.47 151.22,-475.05 155.13,-471.04"/>
</g>
<!-- node_0x5ed3637bcce0 -->
<g id="node11" class="node">
<title>node_0x5ed3637bcce0</title>
<ellipse fill="#e8f0fe" stroke="black" cx="274.5" cy="-450" rx="69.59" ry="18"/>
<text text-anchor="middle" x="274.5" y="-446.3" font-family="Arial" font-size="14.00">STATEMENTS</text>
</g>
<!-- node_0x5ed3637bcd30&#45;&gt;node_0x5ed3637bcce0 -->
<g id="edge10" class="edge">
<title>node_0x5ed3637bcd30&#45;&gt;node_0x5ed3637bcce0</title>
<path fill="none" stroke="#555555" d="M219.56,-504.41C229.15,-495.08 241.26,-483.32 251.66,-473.2"/>
<polygon fill="#555555" stroke="#555555" points="253.77,-475.05 257.56,-467.47 249.87,-471.04 253.77,-475.05"/>
</g>
<!-- node_0x5ed3637bc940 -->
<g id="node9" class="node">
<title>node_0x5ed3637bc940</title>
<ellipse fill="#e8f0fe" stroke="black" cx="87.5" cy="-378" rx="27" ry="18"/>
<text text-anchor="middle" x="87.5" y="-374.3" font-family="Arial" font-size="14.00">INT</text>
</g>
<!-- node_0x5ed3637bca20&#45;&gt;node_0x5ed3637bc940 -->
<g id="edge8" class="edge">
<title>node_0x5ed3637bca20&#45;&gt;node_0x5ed3637bc940</title>
<path fill="none" stroke="#555555" d="M120.09,-432.05C114.49,-422.94 107.51,-411.57 101.44,-401.7"/>
<polygon fill="#555555" stroke="#555555" points="103.79,-400.18 97.22,-394.83 99.02,-403.11 103.79,-400.18"/>
</g>
<!-- node_0x5ed3637bc9b0 -->
<g id="node10" class="node">
<title>node_0x5ed3637bc9b0</title>
<ellipse fill="#e8f0fe" stroke="black" cx="159.5" cy="-378" rx="27" ry="18"/>
<text text-anchor="middle" x="159.5" y="-374.3" font-family="Arial" font-size="14.00">x</text>
</g>
<!-- node_0x5ed3637bca20&#45;&gt;node_0x5ed3637bc9b0 -->
<g id="edge9" class="edge">
<title>node_0x5ed3637bca20&#45;&gt;node_0x5ed3637bc9b0</title>
<path fill="none" stroke="#555555" d="M137.52,-432.05C141.08,-423.46 145.47,-412.86 149.39,-403.4"/>
<polygon fill="#555555" stroke="#555555" points="152.07,-404.25 152.54,-395.79 146.89,-402.11 152.07,-404.25"/>
</g>
<!-- node_0x5ed3637bcc90 -->
<g id="node12" class="node">
<title>node_0x5ed3637bcc90</title>
<ellipse fill="#e8f0fe" stroke="black" cx="274.5" cy="-378" rx="40.89" ry="18"/>
<text text-anchor="middle" x="274.5" y="-374.3" font-family="Arial" font-size="14.00">BLOCK</text>
</g>
<!-- node_0x5ed3637bcce0&#45;&gt;node_0x5ed3637bcc90 -->
<g id="edge11" class="edge">
<title>node_0x5ed3637bcce0&#45;&gt;node_0x5ed3637bcc90</title>
<path fill="none" stroke="#555555" d="M274.5,-431.7C274.5,-423.39 274.5,-413.28 274.5,-404.14"/>
<polygon fill="#555555" stroke="#555555" points="277.3,-404.1 274.5,-396.1 271.7,-404.1 277.3,-404.1"/>
</g>
<!-- node_0x5ed3637bcc40 -->
<g id="node13" class="node">
<title>node_0x5ed3637bcc40</title>
<ellipse fill="#e8f0fe" stroke="black" cx="274.5" cy="-306" rx="69.59" ry="18"/>
<text text-anchor="middle" x="274.5" y="-302.3" font-family="Arial" font-size="14.00">STATEMENTS</text>
</g>
<!-- node_0x5ed3637bcc90&#45;&gt;node_0x5ed3637bcc40 -->
<g id="edge12" class="edge">
<title>node_0x5ed3637bcc90&#45;&gt;node_0x5ed3637bcc40</title>
<path fill="none" stroke="#555555" d="M274.5,-359.7C274.5,-351.39 274.5,-341.28 274.5,-332.14"/>
<polygon fill="#555555" stroke="#555555" points="277.3,-332.1 274.5,-324.1 271.7,-332.1 277.3,-332.1"/>
</g>
<!-- node_0x5ed3637bcbf0 -->
<g id="node14" class="node">
<title>node_0x5ed3637bcbf0</title>
<ellipse fill="#e8f0fe" stroke="black" cx="274.5" cy="-234" rx="40.89" ry="18"/>
<text text-anchor="middle" x="274.5" y="-230.3" font-family="Arial" font-size="14.00">BLOCK</text>
</g>
<!-- node_0x5ed3637bcc40&#45;&gt;node_0x5ed3637bcbf0 -->
<g id="edge13" class="edge">
<title>node_0x5ed3637bcc40&#45;&gt;node_0x5ed3637bcbf0</title>
<path fill="none" stroke="#555555" d="M274.5,-287.7C274.5,-279.39 274.5,-269.28 274.5,-260.14"/>
<polygon fill="#555555" stroke="#555555" points="277.3,-260.1 274.5,-252.1 271.7,-260.1 277.3,-260.1"/>
</g>
<!-- node_0x5ed3637bcba0 -->
<g id="node15" class="node">
<title>node_0x5ed3637bcba0</title>
<ellipse fill="#e8f0fe" stroke="black" cx="274.5" cy="-162" rx="76.09" ry="18"/>
<text text-anchor="middle" x="274.5" y="-158.3" font-family="Arial" font-size="14.00">BLOCK_ELEMS</text>
</g>
<!-- node_0x5ed3637bcbf0&#45;&gt;node_0x5ed3637bcba0 -->
<g id="edge14" class="edge">
<title>node_0x5ed3637bcbf0&#45;&gt;node_0x5ed3637bcba0</title>
<path fill="none" stroke="#555555" d="M274.5,-215.7C274.5,-207.39 274.5,-197.28 274.5,-188.14"/>
<polygon fill="#555555" stroke="#555555" points="277.3,-188.1 274.5,-180.1 271.7,-188.1 277.3,-188.1"/>
</g>
<!-- node_0x5ed3637bcb50 -->
<g id="node16" class="node">
<title>node_0x5ed3637bcb50</title>
<ellipse fill="#e8f0fe" stroke="black" cx="274.5" cy="-90" rx="56.59" ry="18"/>
<text text-anchor="middle" x="274.5" y="-86.3" font-family="Arial" font-size="14.00">VAR_DECL</text>
</g>
<!-- node_0x5ed3637bcba0&#45;&gt;node_0x5ed3637bcb50 -->
<g id="edge15" class="edge">
<title>node_0x5ed3637bcba0&#45;&gt;node_0x5ed3637bcb50</title>
<path fill="none" stroke="#555555" d="M274.5,-143.7C274.5,-135.39 274.5,-125.28 274.5,-116.14"/>
<polygon fill="#555555" stroke="#555555" points="277.3,-116.1 274.5,-108.1 271.7,-116.1 277.3,-116.1"/>
</g>
<!-- node_0x5ed3637bca70 -->
<g id="node17" class="node">
<title>node_0x5ed3637bca70</title>
<ellipse fill="#e8f0fe" stroke="black" cx="238.5" cy="-18" rx="27" ry="18"/>
<text text-anchor="middle" x="238.5" y="-14.3" font-family="Arial" font-size="14.00">INT</text>
</g>
<!-- node_0x5ed3637bcb50&#45;&gt;node_0x5ed3637bca70 -->
<g id="edge16" class="edge">
<title>node_0x5ed3637bcb50&#45;&gt;node_0x5ed3637bca70</title>
<path fill="none" stroke="#555555" d="M265.78,-72.05C261.25,-63.24 255.64,-52.33 250.68,-42.69"/>
<polygon fill="#555555" stroke="#555555" points="253.03,-41.14 246.88,-35.31 248.05,-43.7 253.03,-41.14"/>
</g>
<!-- node_0x5ed3637bcae0 -->
<g id="node18" class="node">
<title>node_0x5ed3637bcae0</title>
<ellipse fill="#e8f0fe" stroke="black" cx="310.5" cy="-18" rx="27" ry="18"/>
<text text-anchor="middle" x="310.5" y="-14.3" font-family="Arial" font-size="14.00">y</text>
</g>
<!-- node_0x5ed3637bcb50&#45;&gt;node_0x5ed3637bcae0 -->
<g id="edge17" class="edge">
<title>node_0x5ed3637bcb50&#45;&gt;node_0x5ed3637bcae0</title>
<path fill="none" stroke="#555555" d="M283.21,-72.05C287.74,-63.24 293.36,-52.33 298.31,-42.69"/>
<polygon fill="#555555" stroke="#555555" points="300.94,-43.7 302.11,-35.31 295.96,-41.14 300.94,-43.7"/>
</g>
</g>
</svg>
