<?xml version="1.0" encoding="UTF-8" standalone="no"?>
<!DOCTYPE svg PUBLIC "-//W3C//DTD SVG 1.1//EN"
 "http://www.w3.org/Graphics/SVG/1.1/DTD/svg11.dtd">
<!-- Generated by graphviz version 2.43.0 (0)
 -->
<!-- Title: AST Pages: 1 -->
<svg width="898pt" height="1052pt"
 viewBox="0.00 0.00 898.50 1052.00" xmlns="http://www.w3.org/2000/svg" xmlns:xlink="http://www.w3.org/1999/xlink">
<g id="graph0" class="graph" transform="scale(1 1) rotate(0) translate(4 1048)">
<title>AST</title>
<polygon fill="white" stroke="transparent" points="-4,4 -4,-1048 894.5,-1048 894.5,4 -4,4"/>
<!-- node_0x5dba43292690 -->
<g id="node1" class="node">
<title>node_0x5dba43292690</title>
<ellipse fill="#e8f0fe" stroke="black" cx="113.5" cy="-1026" rx="27" ry="18"/>
<text text-anchor="middle" x="113.5" y="-1022.3" font-family="Arial" font-size="14.00">P</text>
</g>
<!-- node_0x5dba43292640 -->
<g id="node2" class="node">
<title>node_0x5dba43292640</title>
<ellipse fill="#e8f0fe" stroke="black" cx="113.5" cy="-954" rx="101.28" ry="18"/>
<text text-anchor="middle" x="113.5" y="-950.3" font-family="Arial" font-size="14.00">METHOD_DECL_LIST</text>
</g>
<!-- node_0x5dba43292690&#45;&gt;node_0x5dba43292640 -->
<g id="edge1" class="edge">
<title>node_0x5dba43292690&#45;&gt;node_0x5dba43292640</title>
<path fill="none" stroke="#555555" d="M113.5,-1007.7C113.5,-999.39 113.5,-989.28 113.5,-980.14"/>
<polygon fill="#555555" stroke="#555555" points="116.3,-980.1 113.5,-972.1 110.7,-980.1 116.3,-980.1"/>
</g>
<!-- node_0x5dba432925f0 -->
<g id="node3" class="node">
<title>node_0x5dba432925f0</title>
<ellipse fill="#e8f0fe" stroke="black" cx="113.5" cy="-882" rx="77.99" ry="18"/>
<text text-anchor="middle" x="113.5" y="-878.3" font-family="Arial" font-size="14.00">METHOD_DECL</text>
</g>
<!-- node_0x5dba43292640&#45;&gt;node_0x5dba432925f0 -->
<g id="edge2" class="edge">
<title>node_0x5dba43292640&#45;&gt;node_0x5dba432925f0</title>
<path fill="none" stroke="#555555" d="M113.5,-935.7C113.5,-927.39 113.5,-917.28 113.5,-908.14"/>
<polygon fill="#555555" stroke="#555555" points="116.3,-908.1 113.5,-900.1 110.7,-908.1 116.3,-908.1"/>
</g>
<!-- node_0x5dba43292530 -->
<g id="node4" class="node">
<title>node_0x5dba43292530</title>
<ellipse fill="#e8f0fe" stroke="black" cx="32.5" cy="-810" rx="32.49" ry="18"/>
<text text-anchor="middle" x="32.5" y="-806.3" font-family="Arial" font-size="14.00">VOID</text>
</g>
<!-- node_0x5dba432925f0&#45;&gt;node_0x5dba43292530 -->
<g id="edge3" class="edge">
<title>node_0x5dba432925f0&#45;&gt;node_0x5dba43292530</title>
<path fill="none" stroke="#555555" d="M94.3,-864.41C82.67,-854.36 67.76,-841.47 55.5,-830.88"/>
<polygon fill="#555555" stroke="#555555" points="57.24,-828.68 49.36,-825.57 53.58,-832.92 57.24,-828.68"/>
</g>
<!-- node_0x5dba43292580 -->
<g id="node5" class="node">
<title>node_0x5dba43292580</title>
<ellipse fill="#e8f0fe" stroke="black" cx="113.5" cy="-810" rx="30.59" ry="18"/>
<text text-anchor="middle" x="113.5" y="-806.3" font-family="Arial" font-size="14.00">main</text>
</g>
<!-- node_0x5dba432925f0&#45;&gt;node_0x5dba43292580 -->
<g id="edge4" class="edge">
<title>node_0x5dba432925f0&#45;&gt;node_0x5dba43292580</title>
<path fill="none" stroke="#555555" d="M113.5,-863.7C113.5,-855.39 113.5,-845.28 113.5,-836.14"/>
<polygon fill="#555555" stroke="#555555" points="116.3,-836.1 113.5,-828.1 110.7,-836.1 116.3,-836.1"/>
</g>
<!-- node_0x5dba432924e0 -->
<g id="node6" class="node">
<title>node_0x5dba432924e0</title>
<ellipse fill="#e8f0fe" stroke="black" cx="202.5" cy="-810" rx="40.89" ry="18"/>
<text text-anchor="middle" x="202.5" y="-806.3" font-family="Arial" font-size="14.00">BLOCK</text>
</g>
<!-- node_0x5dba432925f0&#45;&gt;node_0x5dba432924e0 -->
<g id="edge5" class="edge">
<title>node_0x5dba432925f0&#45;&gt;node_0x5dba432924e0</title>
<path fill="none" stroke="#555555" d="M134.59,-864.41C147.31,-854.4 163.6,-841.59 177.04,-831.02"/>
<polygon fill="#555555" stroke="#555555" points="178.82,-833.18 183.38,-826.04 175.36,-828.78 178.82,-833.18"/>
</g>
<!-- node_0x5dba43292490 -->
<g id="node7" class="node">
<title>node_0x5dba43292490</title>
<ellipse fill="#e8f0fe" stroke="black" cx="202.5" cy="-738" rx="76.09" ry="18"/>
<text text-anchor="middle" x="202.5" y="-734.3" font-family="Arial" font-size="14.00">BLOCK_ELEMS</text>
</g>
<!-- node_0x5dba432924e0&#45;&gt;node_0x5dba43292490 -->
<g id="edge6" class="edge">
<title>node_0x5dba432924e0&#45;&gt;node_0x5dba43292490</title>
<path fill="none" stroke="#555555" d="M202.5,-791.7C202.5,-783.39 202.5,-773.28 202.5,-764.14"/>
<polygon fill="#555555" stroke="#555555" points="205.3,-764.1 202.5,-756.1 199.7,-764.1 205.3,-764.1"/>
</g>
<!-- node_0x5dba43291b00 -->
<g id="node8" class="node">
<title>node_0x5dba43291b00</title>
<ellipse fill="#e8f0fe" stroke="black" cx="127.5" cy="-666" rx="56.59" ry="18"/>
<text text-anchor="middle" x="127.5" y="-662.3" font-family="Arial" font-size="14.00">VAR_DECL</text>
</g>
<!-- node_0x5dba43292490&#45;&gt;node_0x5dba43291b00 -->
<g id="edge7" class="edge">
<title>node_0x5dba43292490&#45;&gt;node_0x5dba43291b00</title>
<path fill="none" stroke="#555555" d="M184.72,-720.41C174.56,-710.93 161.7,-698.92 150.75,-688.7"/>
<polygon fill="#555555" stroke="#555555" points="152.64,-686.64 144.88,-683.23 148.82,-690.73 152.64,-686.64"/>
</g>
<!-- node_0x5dba43292440 -->
<g id="node13" class="node">
<title>node_0x5dba43292440</title>
<ellipse fill="#e8f0fe" stroke="black" cx="284.5" cy="-666" rx="76.09" ry="18"/>
<text text-anchor="middle" x="284.5" y="-662.3" font-family="Arial" font-size="14.00">BLOCK_ELEMS</text>
</g>
<!-- node_0x5dba43292490&#45;&gt;node_0x5dba43292440 -->
<g id="edge12" class="edge">
<title>node_0x5dba43292490&#45;&gt;node_0x5dba43292440</title>
<path fill="none" stroke="#555555" d="M221.93,-720.41C232.96,-711 246.9,-699.1 258.82,-688.92"/>
<polygon fill="#555555" stroke="#555555" points="260.94,-690.79 265.2,-683.47 257.3,-686.53 260.94,-690.79"/>
</g>
<!-- node_0x5dba43291940 -->
<g id="node9" class="node">
<title>node_0x5dba43291940</title>
<ellipse fill="#e8f0fe" stroke="black" cx="39.5" cy="-594" rx="27" ry="18"/>
<text text-anchor="middle" x="39.5" y="-590.3" font-family="Arial" font-size="14.00">INT</text>
</g>
<!-- node_0x5dba43291b00&#45;&gt;node_0x5dba43291940 -->
<g id="edge8" class="edge">
<title>node_0x5dba43291b00&#45;&gt;node_0x5dba43291940</title>
<path fill="none" stroke="#555555" d="M107.53,-649.12C94.19,-638.51 76.61,-624.52 62.66,-613.42"/>
<polygon fill="#555555" stroke="#555555" points="64.14,-611.03 56.14,-608.24 60.66,-615.41 64.14,-611.03"/>
</g>
<!-- node_0x5dba43291ab0 -->
<g id="node10" class="node">
<title>node_0x5dba43291ab0</title>
<ellipse fill="#e8f0fe" stroke="black" cx="127.5" cy="-594" rx="42.79" ry="18"/>
<text text-anchor="middle" x="127.5" y="-590.3" font-family="Arial" font-size="14.00">LIST_ID</text>
</g>
<!-- node_0x5dba43291b00&#45;&gt;node_0x5dba43291ab0 -->
<g id="edge9" class="edge">
<title>node_0x5dba43291b00&#45;&gt;node_0x5dba43291ab0</title>
<path fill="none" stroke="#555555" d="M127.5,-647.7C127.5,-639.39 127.5,-629.28 127.5,-620.14"/>
<polygon fill="#555555" stroke="#555555" points="130.3,-620.1 127.5,-612.1 124.7,-620.1 130.3,-620.1"/>
</g>
<!-- node_0x5dba43291a40 -->
<g id="node11" class="node">
<title>node_0x5dba43291a40</title>
<ellipse fill="#e8f0fe" stroke="black" cx="55.5" cy="-522" rx="27" ry="18"/>
<text text-anchor="middle" x="55.5" y="-518.3" font-family="Arial" font-size="14.00">x</text>
</g>
<!-- node_0x5dba43291ab0&#45;&gt;node_0x5dba43291a40 -->
<g id="edge10" class="edge">
<title>node_0x5dba43291ab0&#45;&gt;node_0x5dba43291a40</title>
<path fill="none" stroke="#555555" d="M111.16,-577.12C100.8,-567.04 87.3,-553.92 76.19,-543.12"/>
<polygon fill="#555555" stroke="#555555" points="77.99,-540.96 70.3,-537.39 74.09,-544.98 77.99,-540.96"/>
</g>
<!-- node_0x5dba432919d0 -->
<g id="node12" class="node">
<title>node_0x5dba432919d0</title>
<ellipse fill="#e8f0fe" stroke="black" cx="127.5" cy="-522" rx="27" ry="18"/>
<text text-anchor="middle" x="127.5" y="-518.3" font-family="Arial" font-size="14.00">y</text>
</g>
<!-- node_0x5dba43291ab0&#45;&gt;node_0x5dba432919d0 -->
<g id="edge11" class="edge">
<title>node_0x5dba43291ab0&#45;&gt;node_0x5dba432919d0</title>
<path fill="none" stroke="#555555" d="M127.5,-575.7C127.5,-567.39 127.5,-557.28 127.5,-548.14"/>
<polygon fill="#555555" stroke="#555555" points="130.3,-548.1 127.5,-540.1 124.7,-548.1 130.3,-548.1"/>
</g>
<!-- node_0x5dba43291c30 -->
<g id="node14" class="node">
<title>node_0x5dba43291c30</title>
<ellipse fill="#e8f0fe" stroke="black" cx="284.5" cy="-594" rx="56.59" ry="18"/>
<text text-anchor="middle" x="284.5" y="-590.3" font-family="Arial" font-size="14.00">VAR_DECL</text>
</g>
<!-- node_0x5dba43292440&#45;&gt;node_0x5dba43291c30 -->
<g id="edge13" class="edge">
<title>node_0x5dba43292440&#45;&gt;node_0x5dba43291c30</title>
<path fill="none" stroke="#555555" d="M284.5,-647.7C284.5,-639.39 284.5,-629.28 284.5,-620.14"/>
<polygon fill="#555555" stroke="#555555" points="287.3,-620.1 284.5,-612.1 281.7,-620.1 287.3,-620.1"/>
</g>
<!-- node_0x5dba432923f0 -->
<g id="node17" class="node">
<title>node_0x5dba432923f0</title>
<ellipse fill="#e8f0fe" stroke="black" cx="434.5" cy="-594" rx="69.59" ry="18"/>
<text text-anchor="middle" x="434.5" y="-590.3" font-family="Arial" font-size="14.00">STATEMENTS</text>
</g>
<!-- node_0x5dba43292440&#45;&gt;node_0x5dba432923f0 -->
<g id="edge16" class="edge">
<title>node_0x5dba43292440&#45;&gt;node_0x5dba432923f0</title>
<path fill="none" stroke="#555555" d="M317.42,-649.64C340.24,-638.99 370.74,-624.75 394.9,-613.48"/>
<polygon fill="#555555" stroke="#555555" points="396.11,-616.01 402.17,-610.09 393.74,-610.93 396.11,-616.01"/>
</g>
<!-- node_0x5dba43291b50 -->
<g id="node15" class="node">
<title>node_0x5dba43291b50</title>
<ellipse fill="#e8f0fe" stroke="black" cx="226.5" cy="-522" rx="53.89" ry="18"/>
<text text-anchor="middle" x="226.5" y="-518.3" font-family="Arial" font-size="14.00">BOOLEAN</text>
</g>
<!-- node_0x5dba43291c30&#45;&gt;node_0x5dba43291b50 -->
<g id="edge14" class="edge">
<title>node_0x5dba43291c30&#45;&gt;node_0x5dba43291b50</title>
<path fill="none" stroke="#555555" d="M270.75,-576.41C263.17,-567.26 253.64,-555.76 245.36,-545.77"/>
<polygon fill="#555555" stroke="#555555" points="247.4,-543.84 240.14,-539.47 243.09,-547.42 247.4,-543.84"/>
</g>
<!-- node_0x5dba43291bc0 -->
<g id="node16" class="node">
<title>node_0x5dba43291bc0</title>
<ellipse fill="#e8f0fe" stroke="black" cx="325.5" cy="-522" rx="27" ry="18"/>
<text text-anchor="middle" x="325.5" y="-518.3" font-family="Arial" font-size="14.00">a</text>
</g>
<!-- node_0x5dba43291c30&#45;&gt;node_0x5dba43291bc0 -->
<g id="edge15" class="edge">
<title>node_0x5dba43291c30&#45;&gt;node_0x5dba43291bc0</title>
<path fill="none" stroke="#555555" d="M294.42,-576.05C299.63,-567.16 306.1,-556.11 311.79,-546.41"/>
<polygon fill="#555555" stroke="#555555" points="314.32,-547.63 315.95,-539.31 309.49,-544.79 314.32,-547.63"/>
</g>
<!-- node_0x5dba43291d60 -->
<g id="node18" class="node">
<title>node_0x5dba43291d60</title>
<ellipse fill="#e8f0fe" stroke="black" cx="434.5" cy="-522" rx="63.89" ry="18"/>
<text text-anchor="middle" x="434.5" y="-518.3" font-family="Arial" font-size="14.00">ASSIGMENT</text>
</g>
<!-- node_0x5dba432923f0&#45;&gt;node_0x5dba43291d60 -->
<g id="edge17" class="edge">
<title>node_0x5dba432923f0&#45;&gt;node_0x5dba43291d60</title>
<path fill="none" stroke="#555555" d="M434.5,-575.7C434.5,-567.39 434.5,-557.28 434.5,-548.14"/>
<polygon fill="#555555" stroke="#555555" points="437.3,-548.1 434.5,-540.1 431.7,-548.1 437.3,-548.1"/>
</g>
<!-- node_0x5dba432923a0 -->
<g id="node21" class="node">
<title>node_0x5dba432923a0</title>
<ellipse fill="#e8f0fe" stroke="black" cx="585.5" cy="-522" rx="69.59" ry="18"/>
<text text-anchor="middle" x="585.5" y="-518.3" font-family="Arial" font-size="14.00">STATEMENTS</text>
</g>
<!-- node_0x5dba432923f0&#45;&gt;node_0x5dba432923a0 -->
<g id="edge20" class="edge">
<title>node_0x5dba432923f0&#45;&gt;node_0x5dba432923a0</title>
<path fill="none" stroke="#555555" d="M466.89,-577.98C489.98,-567.28 521.16,-552.83 545.75,-541.42"/>
<polygon fill="#555555" stroke="#555555" points="547.08,-543.9 553.16,-537.99 544.72,-538.82 547.08,-543.9"/>
</g>
<!-- node_0x5dba43291cf0 -->
<g id="node19" class="node">
<title>node_0x5dba43291cf0</title>
<ellipse fill="#e8f0fe" stroke="black" cx="373.5" cy="-450" rx="27" ry="18"/>
<text text-anchor="middle" x="373.5" y="-446.3" font-family="Arial" font-size="14.00">x</text>
</g>
<!-- node_0x5dba43291d60&#45;&gt;node_0x5dba43291cf0 -->
<g id="edge18" class="edge">
<title>node_0x5dba43291d60&#45;&gt;node_0x5dba43291cf0</title>
<path fill="none" stroke="#555555" d="M420.04,-504.41C411.64,-494.77 400.96,-482.52 391.96,-472.19"/>
<polygon fill="#555555" stroke="#555555" points="393.97,-470.23 386.6,-466.04 389.75,-473.91 393.97,-470.23"/>
</g>
<!-- node_0x5dba43291ca0 -->
<g id="node20" class="node">
<title>node_0x5dba43291ca0</title>
<ellipse fill="#e8f0fe" stroke="black" cx="445.5" cy="-450" rx="27" ry="18"/>
<text text-anchor="middle" x="445.5" y="-446.3" font-family="Arial" font-size="14.00">2</text>
</g>
<!-- node_0x5dba43291d60&#45;&gt;node_0x5dba43291ca0 -->
<g id="edge19" class="edge">
<title>node_0x5dba43291d60&#45;&gt;node_0x5dba43291ca0</title>
<path fill="none" stroke="#555555" d="M437.22,-503.7C438.52,-495.39 440.11,-485.28 441.55,-476.14"/>
<polygon fill="#555555" stroke="#555555" points="444.33,-476.44 442.81,-468.1 438.8,-475.57 444.33,-476.44"/>
</g>
<!-- node_0x5dba43291e90 -->
<g id="node22" class="node">
<title>node_0x5dba43291e90</title>
<ellipse fill="#e8f0fe" stroke="black" cx="575.5" cy="-450" rx="63.89" ry="18"/>
<text text-anchor="middle" x="575.5" y="-446.3" font-family="Arial" font-size="14.00">ASSIGMENT</text>
</g>
<!-- node_0x5dba432923a0&#45;&gt;node_0x5dba43291e90 -->
<g id="edge21" class="edge">
<title>node_0x5dba432923a0&#45;&gt;node_0x5dba43291e90</title>
<path fill="none" stroke="#555555" d="M583.03,-503.7C581.84,-495.39 580.39,-485.28 579.09,-476.14"/>
<polygon fill="#555555" stroke="#555555" points="581.84,-475.63 577.94,-468.1 576.3,-476.42 581.84,-475.63"/>
</g>
<!-- node_0x5dba43292350 -->
<g id="node25" class="node">
<title>node_0x5dba43292350</title>
<ellipse fill="#e8f0fe" stroke="black" cx="726.5" cy="-450" rx="69.59" ry="18"/>
<text text-anchor="middle" x="726.5" y="-446.3" font-family="Arial" font-size="14.00">STATEMENTS</text>
</g>
<!-- node_0x5dba432923a0&#45;&gt;node_0x5dba43292350 -->
<g id="edge24" class="edge">
<title>node_0x5dba432923a0&#45;&gt;node_0x5dba43292350</title>
<path fill="none" stroke="#555555" d="M616.09,-505.81C637.19,-495.33 665.41,-481.33 688.04,-470.09"/>
<polygon fill="#555555" stroke="#555555" points="689.55,-472.47 695.48,-466.4 687.06,-467.45 689.55,-472.47"/>
</g>
<!-- node_0x5dba43291e20 -->
<g id="node23" class="node">
<title>node_0x5dba43291e20</title>
<ellipse fill="#e8f0fe" stroke="black" cx="537.5" cy="-378" rx="27" ry="18"/>
<text text-anchor="middle" x="537.5" y="-374.3" font-family="Arial" font-size="14.00">y</text>
</g>
<!-- node_0x5dba43291e90&#45;&gt;node_0x5dba43291e20 -->
<g id="edge22" class="edge">
<title>node_0x5dba43291e90&#45;&gt;node_0x5dba43291e20</title>
<path fill="none" stroke="#555555" d="M566.3,-432.05C561.47,-423.16 555.47,-412.11 550.2,-402.41"/>
<polygon fill="#555555" stroke="#555555" points="552.63,-401 546.35,-395.31 547.71,-403.67 552.63,-401"/>
</g>
<!-- node_0x5dba43291dd0 -->
<g id="node24" class="node">
<title>node_0x5dba43291dd0</title>
<ellipse fill="#e8f0fe" stroke="black" cx="609.5" cy="-378" rx="27" ry="18"/>
<text text-anchor="middle" x="609.5" y="-374.3" font-family="Arial" font-size="14.00">40</text>
</g>
<!-- node_0x5dba43291e90&#45;&gt;node_0x5dba43291dd0 -->
<g id="edge23" class="edge">
<title>node_0x5dba43291e90&#45;&gt;node_0x5dba43291dd0</title>
<path fill="none" stroke="#555555" d="M583.73,-432.05C588.01,-423.24 593.31,-412.33 597.99,-402.69"/>
<polygon fill="#555555" stroke="#555555" points="600.6,-403.73 601.58,-395.31 595.56,-401.28 600.6,-403.73"/>
</g>
<!-- node_0x5dba43292300 -->
<g id="node26" class="node">
<title>node_0x5dba43292300</title>
<ellipse fill="#e8f0fe" stroke="black" cx="726.5" cy="-378" rx="38.99" ry="18"/>
<text text-anchor="middle" x="726.5" y="-374.3" font-family="Arial" font-size="14.00">WHILE</text>
</g>
<!-- node_0x5dba43292350&#45;&gt;node_0x5dba43292300 -->
<g id="edge25" class="edge">
<title>node_0x5dba43292350&#45;&gt;node_0x5dba43292300</title>
<path fill="none" stroke="#555555" d="M726.5,-431.7C726.5,-423.39 726.5,-413.28 726.5,-404.14"/>
<polygon fill="#555555" stroke="#555555" points="729.3,-404.1 726.5,-396.1 723.7,-404.1 729.3,-404.1"/>
</g>
<!-- node_0x5dba43292000 -->
<g id="node27" class="node">
<title>node_0x5dba43292000</title>
<ellipse fill="#e8f0fe" stroke="black" cx="676.5" cy="-306" rx="27" ry="18"/>
<text text-anchor="middle" x="676.5" y="-302.3" font-family="Arial" font-size="14.00">&lt;</text>
</g>
<!-- node_0x5dba43292300&#45;&gt;node_0x5dba43292000 -->
<g id="edge26" class="edge">
<title>node_0x5dba43292300&#45;&gt;node_0x5dba43292000</title>
<path fill="none" stroke="#555555" d="M714.9,-360.76C708.24,-351.45 699.79,-339.61 692.5,-329.41"/>
<polygon fill="#555555" stroke="#555555" points="694.62,-327.55 687.69,-322.67 690.06,-330.8 694.62,-327.55"/>
</g>
<!-- node_0x5dba432922b0 -->
<g id="node30" class="node">
<title>node_0x5dba432922b0</title>
<ellipse fill="#e8f0fe" stroke="black" cx="776.5" cy="-306" rx="40.89" ry="18"/>
<text text-anchor="middle" x="776.5" y="-302.3" font-family="Arial" font-size="14.00">BLOCK</text>
</g>
<!-- node_0x5dba43292300&#45;&gt;node_0x5dba432922b0 -->
<g id="edge29" class="edge">
<title>node_0x5dba43292300&#45;&gt;node_0x5dba432922b0</title>
<path fill="none" stroke="#555555" d="M738.09,-360.76C744.56,-351.71 752.73,-340.27 759.87,-330.28"/>
<polygon fill="#555555" stroke="#555555" points="762.24,-331.77 764.62,-323.63 757.69,-328.52 762.24,-331.77"/>
</g>
<!-- node_0x5dba43291f00 -->
<g id="node28" class="node">
<title>node_0x5dba43291f00</title>
<ellipse fill="#e8f0fe" stroke="black" cx="604.5" cy="-234" rx="27" ry="18"/>
<text text-anchor="middle" x="604.5" y="-230.3" font-family="Arial" font-size="14.00">x</text>
</g>
<!-- node_0x5dba43292000&#45;&gt;node_0x5dba43291f00 -->
<g id="edge27" class="edge">
<title>node_0x5dba43292000&#45;&gt;node_0x5dba43291f00</title>
<path fill="none" stroke="#555555" d="M661.93,-290.83C651.36,-280.56 636.92,-266.52 625.16,-255.09"/>
<polygon fill="#555555" stroke="#555555" points="626.98,-252.95 619.29,-249.38 623.08,-256.97 626.98,-252.95"/>
</g>
<!-- node_0x5dba43291f90 -->
<g id="node29" class="node">
<title>node_0x5dba43291f90</title>
<ellipse fill="#e8f0fe" stroke="black" cx="676.5" cy="-234" rx="27" ry="18"/>
<text text-anchor="middle" x="676.5" y="-230.3" font-family="Arial" font-size="14.00">y</text>
</g>
<!-- node_0x5dba43292000&#45;&gt;node_0x5dba43291f90 -->
<g id="edge28" class="edge">
<title>node_0x5dba43292000&#45;&gt;node_0x5dba43291f90</title>
<path fill="none" stroke="#555555" d="M676.5,-287.7C676.5,-279.39 676.5,-269.28 676.5,-260.14"/>
<polygon fill="#555555" stroke="#555555" points="679.3,-260.1 676.5,-252.1 673.7,-260.1 679.3,-260.1"/>
</g>
<!-- node_0x5dba43292260 -->
<g id="node31" class="node">
<title>node_0x5dba43292260</title>
<ellipse fill="#e8f0fe" stroke="black" cx="791.5" cy="-234" rx="69.59" ry="18"/>
<text text-anchor="middle" x="791.5" y="-230.3" font-family="Arial" font-size="14.00">STATEMENTS</text>
</g>
<!-- node_0x5dba432922b0&#45;&gt;node_0x5dba43292260 -->
<g id="edge30" class="edge">
<title>node_0x5dba432922b0&#45;&gt;node_0x5dba43292260</title>
<path fill="none" stroke="#555555" d="M780.13,-288.05C781.91,-279.75 784.09,-269.58 786.06,-260.38"/>
<polygon fill="#555555" stroke="#555555" points="788.86,-260.68 787.8,-252.28 783.38,-259.51 788.86,-260.68"/>
</g>
<!-- node_0x5dba43292210 -->
<g id="node32" class="node">
<title>node_0x5dba43292210</title>
<ellipse fill="#e8f0fe" stroke="black" cx="791.5" cy="-162" rx="63.89" ry="18"/>
<text text-anchor="middle" x="791.5" y="-158.3" font-family="Arial" font-size="14.00">ASSIGMENT</text>
</g>
<!-- node_0x5dba43292260&#45;&gt;node_0x5dba43292210 -->
<g id="edge31" class="edge">
<title>node_0x5dba43292260&#45;&gt;node_0x5dba43292210</title>
<path fill="none" stroke="#555555" d="M791.5,-215.7C791.5,-207.39 791.5,-197.28 791.5,-188.14"/>
<polygon fill="#555555" stroke="#555555" points="794.3,-188.1 791.5,-180.1 788.7,-188.1 794.3,-188.1"/>
</g>
<!-- node_0x5dba432921a0 -->
<g id="node33" class="node">
<title>node_0x5dba432921a0</title>
<ellipse fill="#e8f0fe" stroke="black" cx="755.5" cy="-90" rx="27" ry="18"/>
<text text-anchor="middle" x="755.5" y="-86.3" font-family="Arial" font-size="14.00">x</text>
</g>
<!-- node_0x5dba43292210&#45;&gt;node_0x5dba432921a0 -->
<g id="edge32" class="edge">
<title>node_0x5dba43292210&#45;&gt;node_0x5dba432921a0</title>
<path fill="none" stroke="#555555" d="M782.78,-144.05C778.25,-135.24 772.64,-124.33 767.68,-114.69"/>
<polygon fill="#555555" stroke="#555555" points="770.03,-113.14 763.88,-107.31 765.05,-115.7 770.03,-113.14"/>
</g>
<!-- node_0x5dba43292150 -->
<g id="node34" class="node">
<title>node_0x5dba43292150</title>
<ellipse fill="#e8f0fe" stroke="black" cx="827.5" cy="-90" rx="27" ry="18"/>
<text text-anchor="middle" x="827.5" y="-86.3" font-family="Arial" font-size="14.00">+</text>
</g>
<!-- node_0x5dba43292210&#45;&gt;node_0x5dba43292150 -->
<g id="edge33" class="edge">
<title>node_0x5dba43292210&#45;&gt;node_0x5dba43292150</title>
<path fill="none" stroke="#555555" d="M800.21,-144.05C804.74,-135.24 810.36,-124.33 815.31,-114.69"/>
<polygon fill="#555555" stroke="#555555" points="817.94,-115.7 819.11,-107.31 812.96,-113.14 817.94,-115.7"/>
</g>
<!-- node_0x5dba43292090 -->
<g id="node35" class="node">
<title>node_0x5dba43292090</title>
<ellipse fill="#e8f0fe" stroke="black" cx="791.5" cy="-18" rx="27" ry="18"/>
<text text-anchor="middle" x="791.5" y="-14.3" font-family="Arial" font-size="14.00">x</text>
</g>
<!-- node_0x5dba43292150&#45;&gt;node_0x5dba43292090 -->
<g id="edge34" class="edge">
<title>node_0x5dba43292150&#45;&gt;node_0x5dba43292090</title>
<path fill="none" stroke="#555555" d="M819.15,-72.76C814.51,-63.75 808.67,-52.39 803.54,-42.43"/>
<polygon fill="#555555" stroke="#555555" points="805.95,-40.98 799.8,-35.15 800.97,-43.54 805.95,-40.98"/>
</g>
<!-- node_0x5dba43292100 -->
<g id="node36" class="node">
<title>node_0x5dba43292100</title>
<ellipse fill="#e8f0fe" stroke="black" cx="863.5" cy="-18" rx="27" ry="18"/>
<text text-anchor="middle" x="863.5" y="-14.3" font-family="Arial" font-size="14.00">1</text>
</g>
<!-- node_0x5dba43292150&#45;&gt;node_0x5dba43292100 -->
<g id="edge35" class="edge">
<title>node_0x5dba43292150&#45;&gt;node_0x5dba43292100</title>
<path fill="none" stroke="#555555" d="M835.85,-72.76C840.48,-63.75 846.33,-52.39 851.45,-42.43"/>
<polygon fill="#555555" stroke="#555555" points="854.02,-43.54 855.19,-35.15 849.04,-40.98 854.02,-43.54"/>
</g>
</g>
</svg>
