<?xml version="1.0" encoding="UTF-8" standalone="no"?>
<!DOCTYPE svg PUBLIC "-//W3C//DTD SVG 1.1//EN"
 "http://www.w3.org/Graphics/SVG/1.1/DTD/svg11.dtd">
<!-- Generated by graphviz version 2.43.0 (0)
 -->
<!-- Title: AST Pages: 1 -->
<svg width="1394pt" height="908pt"
 viewBox="0.00 0.00 1393.95 908.00" xmlns="http://www.w3.org/2000/svg" xmlns:xlink="http://www.w3.org/1999/xlink">
<g id="graph0" class="graph" transform="scale(1 1) rotate(0) translate(4 904)">
<title>AST</title>
<polygon fill="white" stroke="transparent" points="-4,4 -4,-904 1389.95,-904 1389.95,4 -4,4"/>
<!-- node_0x577fa8d65c90 -->
<g id="node1" class="node">
<title>node_0x577fa8d65c90</title>
<ellipse fill="#e8f0fe" stroke="black" cx="373.95" cy="-882" rx="27" ry="18"/>
<text text-anchor="middle" x="373.95" y="-878.3" font-family="Arial" font-size="14.00">P</text>
</g>
<!-- node_0x577fa8d65c40 -->
<g id="node2" class="node">
<title>node_0x577fa8d65c40</title>
<ellipse fill="#e8f0fe" stroke="black" cx="373.95" cy="-810" rx="101.28" ry="18"/>
<text text-anchor="middle" x="373.95" y="-806.3" font-family="Arial" font-size="14.00">METHOD_DECL_LIST</text>
</g>
<!-- node_0x577fa8d65c90&#45;&gt;node_0x577fa8d65c40 -->
<g id="edge1" class="edge">
<title>node_0x577fa8d65c90&#45;&gt;node_0x577fa8d65c40</title>
<path fill="none" stroke="#555555" d="M373.95,-863.7C373.95,-855.39 373.95,-845.28 373.95,-836.14"/>
<polygon fill="#555555" stroke="#555555" points="376.75,-836.1 373.95,-828.1 371.15,-836.1 376.75,-836.1"/>
</g>
<!-- node_0x577fa8d650a0 -->
<g id="node3" class="node">
<title>node_0x577fa8d650a0</title>
<ellipse fill="#e8f0fe" stroke="black" cx="275.95" cy="-738" rx="77.99" ry="18"/>
<text text-anchor="middle" x="275.95" y="-734.3" font-family="Arial" font-size="14.00">METHOD_DECL</text>
</g>
<!-- node_0x577fa8d65c40&#45;&gt;node_0x577fa8d650a0 -->
<g id="edge2" class="edge">
<title>node_0x577fa8d65c40&#45;&gt;node_0x577fa8d650a0</title>
<path fill="none" stroke="#555555" d="M350.72,-792.41C337.2,-782.75 320.01,-770.48 305.53,-760.13"/>
<polygon fill="#555555" stroke="#555555" points="306.8,-757.6 298.67,-755.23 303.55,-762.16 306.8,-757.6"/>
</g>
<!-- node_0x577fa8d65bf0 -->
<g id="node24" class="node">
<title>node_0x577fa8d65bf0</title>
<ellipse fill="#e8f0fe" stroke="black" cx="543.95" cy="-738" rx="101.28" ry="18"/>
<text text-anchor="middle" x="543.95" y="-734.3" font-family="Arial" font-size="14.00">METHOD_DECL_LIST</text>
</g>
<!-- node_0x577fa8d65c40&#45;&gt;node_0x577fa8d65bf0 -->
<g id="edge23" class="edge">
<title>node_0x577fa8d65c40&#45;&gt;node_0x577fa8d65bf0</title>
<path fill="none" stroke="#555555" d="M412.1,-793.29C437.6,-782.79 471.28,-768.92 498.22,-757.83"/>
<polygon fill="#555555" stroke="#555555" points="499.3,-760.41 505.63,-754.78 497.16,-755.23 499.3,-760.41"/>
</g>
<!-- node_0x577fa8d64920 -->
<g id="node4" class="node">
<title>node_0x577fa8d64920</title>
<ellipse fill="#e8f0fe" stroke="black" cx="53.95" cy="-666" rx="53.89" ry="18"/>
<text text-anchor="middle" x="53.95" y="-662.3" font-family="Arial" font-size="14.00">BOOLEAN</text>
</g>
<!-- node_0x577fa8d650a0&#45;&gt;node_0x577fa8d64920 -->
<g id="edge3" class="edge">
<title>node_0x577fa8d650a0&#45;&gt;node_0x577fa8d64920</title>
<path fill="none" stroke="#555555" d="M231.82,-723.09C193.57,-711.03 138.43,-693.64 99.71,-681.43"/>
<polygon fill="#555555" stroke="#555555" points="100.18,-678.64 91.71,-678.91 98.5,-683.98 100.18,-678.64"/>
</g>
<!-- node_0x577fa8d65030 -->
<g id="node5" class="node">
<title>node_0x577fa8d65030</title>
<ellipse fill="#e8f0fe" stroke="black" cx="167.95" cy="-666" rx="42.49" ry="18"/>
<text text-anchor="middle" x="167.95" y="-662.3" font-family="Arial" font-size="14.00">isBigger</text>
</g>
<!-- node_0x577fa8d650a0&#45;&gt;node_0x577fa8d65030 -->
<g id="edge4" class="edge">
<title>node_0x577fa8d650a0&#45;&gt;node_0x577fa8d65030</title>
<path fill="none" stroke="#555555" d="M250.9,-720.76C234.87,-710.37 214,-696.85 197.21,-685.97"/>
<polygon fill="#555555" stroke="#555555" points="198.53,-683.48 190.29,-681.48 195.48,-688.18 198.53,-683.48"/>
</g>
<!-- node_0x577fa8d64bf0 -->
<g id="node6" class="node">
<title>node_0x577fa8d64bf0</title>
<ellipse fill="#e8f0fe" stroke="black" cx="275.95" cy="-666" rx="48.19" ry="18"/>
<text text-anchor="middle" x="275.95" y="-662.3" font-family="Arial" font-size="14.00">PARAMS</text>
</g>
<!-- node_0x577fa8d650a0&#45;&gt;node_0x577fa8d64bf0 -->
<g id="edge5" class="edge">
<title>node_0x577fa8d650a0&#45;&gt;node_0x577fa8d64bf0</title>
<path fill="none" stroke="#555555" d="M275.95,-719.7C275.95,-711.39 275.95,-701.28 275.95,-692.14"/>
<polygon fill="#555555" stroke="#555555" points="278.75,-692.1 275.95,-684.1 273.15,-692.1 278.75,-692.1"/>
</g>
<!-- node_0x577fa8d64fe0 -->
<g id="node13" class="node">
<title>node_0x577fa8d64fe0</title>
<ellipse fill="#e8f0fe" stroke="black" cx="423.95" cy="-666" rx="69.59" ry="18"/>
<text text-anchor="middle" x="423.95" y="-662.3" font-family="Arial" font-size="14.00">STATEMENTS</text>
</g>
<!-- node_0x577fa8d650a0&#45;&gt;node_0x577fa8d64fe0 -->
<g id="edge12" class="edge">
<title>node_0x577fa8d650a0&#45;&gt;node_0x577fa8d64fe0</title>
<path fill="none" stroke="#555555" d="M308.79,-721.46C331.15,-710.89 360.87,-696.83 384.51,-685.65"/>
<polygon fill="#555555" stroke="#555555" points="385.92,-688.08 391.95,-682.13 383.52,-683.02 385.92,-688.08"/>
</g>
<!-- node_0x577fa8d64a70 -->
<g id="node7" class="node">
<title>node_0x577fa8d64a70</title>
<ellipse fill="#e8f0fe" stroke="black" cx="128.95" cy="-594" rx="42.49" ry="18"/>
<text text-anchor="middle" x="128.95" y="-590.3" font-family="Arial" font-size="14.00">PARAM</text>
</g>
<!-- node_0x577fa8d64bf0&#45;&gt;node_0x577fa8d64a70 -->
<g id="edge6" class="edge">
<title>node_0x577fa8d64bf0&#45;&gt;node_0x577fa8d64a70</title>
<path fill="none" stroke="#555555" d="M247.25,-651.34C223.22,-639.89 188.86,-623.53 163.35,-611.38"/>
<polygon fill="#555555" stroke="#555555" points="164.5,-608.83 156.08,-607.92 162.09,-613.89 164.5,-608.83"/>
</g>
<!-- node_0x577fa8d64ba0 -->
<g id="node10" class="node">
<title>node_0x577fa8d64ba0</title>
<ellipse fill="#e8f0fe" stroke="black" cx="272.95" cy="-594" rx="42.49" ry="18"/>
<text text-anchor="middle" x="272.95" y="-590.3" font-family="Arial" font-size="14.00">PARAM</text>
</g>
<!-- node_0x577fa8d64bf0&#45;&gt;node_0x577fa8d64ba0 -->
<g id="edge9" class="edge">
<title>node_0x577fa8d64bf0&#45;&gt;node_0x577fa8d64ba0</title>
<path fill="none" stroke="#555555" d="M275.2,-647.7C274.85,-639.39 274.41,-629.28 274.02,-620.14"/>
<polygon fill="#555555" stroke="#555555" points="276.82,-619.98 273.68,-612.1 271.22,-620.22 276.82,-619.98"/>
</g>
<!-- node_0x577fa8d64990 -->
<g id="node8" class="node">
<title>node_0x577fa8d64990</title>
<ellipse fill="#e8f0fe" stroke="black" cx="56.95" cy="-522" rx="27" ry="18"/>
<text text-anchor="middle" x="56.95" y="-518.3" font-family="Arial" font-size="14.00">INT</text>
</g>
<!-- node_0x577fa8d64a70&#45;&gt;node_0x577fa8d64990 -->
<g id="edge7" class="edge">
<title>node_0x577fa8d64a70&#45;&gt;node_0x577fa8d64990</title>
<path fill="none" stroke="#555555" d="M112.61,-577.12C102.25,-567.04 88.75,-553.92 77.64,-543.12"/>
<polygon fill="#555555" stroke="#555555" points="79.44,-540.96 71.75,-537.39 75.53,-544.98 79.44,-540.96"/>
</g>
<!-- node_0x577fa8d64a00 -->
<g id="node9" class="node">
<title>node_0x577fa8d64a00</title>
<ellipse fill="#e8f0fe" stroke="black" cx="128.95" cy="-522" rx="27" ry="18"/>
<text text-anchor="middle" x="128.95" y="-518.3" font-family="Arial" font-size="14.00">x</text>
</g>
<!-- node_0x577fa8d64a70&#45;&gt;node_0x577fa8d64a00 -->
<g id="edge8" class="edge">
<title>node_0x577fa8d64a70&#45;&gt;node_0x577fa8d64a00</title>
<path fill="none" stroke="#555555" d="M128.95,-575.7C128.95,-567.39 128.95,-557.28 128.95,-548.14"/>
<polygon fill="#555555" stroke="#555555" points="131.75,-548.1 128.95,-540.1 126.15,-548.1 131.75,-548.1"/>
</g>
<!-- node_0x577fa8d64ac0 -->
<g id="node11" class="node">
<title>node_0x577fa8d64ac0</title>
<ellipse fill="#e8f0fe" stroke="black" cx="200.95" cy="-522" rx="27" ry="18"/>
<text text-anchor="middle" x="200.95" y="-518.3" font-family="Arial" font-size="14.00">INT</text>
</g>
<!-- node_0x577fa8d64ba0&#45;&gt;node_0x577fa8d64ac0 -->
<g id="edge10" class="edge">
<title>node_0x577fa8d64ba0&#45;&gt;node_0x577fa8d64ac0</title>
<path fill="none" stroke="#555555" d="M256.61,-577.12C246.25,-567.04 232.75,-553.92 221.64,-543.12"/>
<polygon fill="#555555" stroke="#555555" points="223.44,-540.96 215.75,-537.39 219.53,-544.98 223.44,-540.96"/>
</g>
<!-- node_0x577fa8d64b30 -->
<g id="node12" class="node">
<title>node_0x577fa8d64b30</title>
<ellipse fill="#e8f0fe" stroke="black" cx="272.95" cy="-522" rx="27" ry="18"/>
<text text-anchor="middle" x="272.95" y="-518.3" font-family="Arial" font-size="14.00">y</text>
</g>
<!-- node_0x577fa8d64ba0&#45;&gt;node_0x577fa8d64b30 -->
<g id="edge11" class="edge">
<title>node_0x577fa8d64ba0&#45;&gt;node_0x577fa8d64b30</title>
<path fill="none" stroke="#555555" d="M272.95,-575.7C272.95,-567.39 272.95,-557.28 272.95,-548.14"/>
<polygon fill="#555555" stroke="#555555" points="275.75,-548.1 272.95,-540.1 270.15,-548.1 275.75,-548.1"/>
</g>
<!-- node_0x577fa8d64f90 -->
<g id="node14" class="node">
<title>node_0x577fa8d64f90</title>
<ellipse fill="#e8f0fe" stroke="black" cx="429.95" cy="-594" rx="46.29" ry="18"/>
<text text-anchor="middle" x="429.95" y="-590.3" font-family="Arial" font-size="14.00">IF_ELSE</text>
</g>
<!-- node_0x577fa8d64fe0&#45;&gt;node_0x577fa8d64f90 -->
<g id="edge13" class="edge">
<title>node_0x577fa8d64fe0&#45;&gt;node_0x577fa8d64f90</title>
<path fill="none" stroke="#555555" d="M425.43,-647.7C426.14,-639.39 427.01,-629.28 427.79,-620.14"/>
<polygon fill="#555555" stroke="#555555" points="430.59,-620.31 428.48,-612.1 425.01,-619.84 430.59,-620.31"/>
</g>
<!-- node_0x577fa8d64d60 -->
<g id="node15" class="node">
<title>node_0x577fa8d64d60</title>
<ellipse fill="#e8f0fe" stroke="black" cx="344.95" cy="-522" rx="27" ry="18"/>
<text text-anchor="middle" x="344.95" y="-518.3" font-family="Arial" font-size="14.00">&gt;</text>
</g>
<!-- node_0x577fa8d64f90&#45;&gt;node_0x577fa8d64d60 -->
<g id="edge14" class="edge">
<title>node_0x577fa8d64f90&#45;&gt;node_0x577fa8d64d60</title>
<path fill="none" stroke="#555555" d="M411.08,-577.46C398.3,-566.94 381.35,-552.98 367.8,-541.82"/>
<polygon fill="#555555" stroke="#555555" points="369.42,-539.52 361.46,-536.6 365.86,-543.85 369.42,-539.52"/>
</g>
<!-- node_0x577fa8d64e50 -->
<g id="node18" class="node">
<title>node_0x577fa8d64e50</title>
<ellipse fill="#e8f0fe" stroke="black" cx="459.95" cy="-522" rx="69.59" ry="18"/>
<text text-anchor="middle" x="459.95" y="-518.3" font-family="Arial" font-size="14.00">STATEMENTS</text>
</g>
<!-- node_0x577fa8d64f90&#45;&gt;node_0x577fa8d64e50 -->
<g id="edge17" class="edge">
<title>node_0x577fa8d64f90&#45;&gt;node_0x577fa8d64e50</title>
<path fill="none" stroke="#555555" d="M437.21,-576.05C440.84,-567.58 445.3,-557.17 449.31,-547.82"/>
<polygon fill="#555555" stroke="#555555" points="451.96,-548.73 452.54,-540.28 446.82,-546.53 451.96,-548.73"/>
</g>
<!-- node_0x577fa8d64f40 -->
<g id="node21" class="node">
<title>node_0x577fa8d64f40</title>
<ellipse fill="#e8f0fe" stroke="black" cx="616.95" cy="-522" rx="69.59" ry="18"/>
<text text-anchor="middle" x="616.95" y="-518.3" font-family="Arial" font-size="14.00">STATEMENTS</text>
</g>
<!-- node_0x577fa8d64f90&#45;&gt;node_0x577fa8d64f40 -->
<g id="edge20" class="edge">
<title>node_0x577fa8d64f90&#45;&gt;node_0x577fa8d64f40</title>
<path fill="none" stroke="#555555" d="M462.09,-580.97C492.16,-569.71 537.38,-552.78 571.2,-540.12"/>
<polygon fill="#555555" stroke="#555555" points="572.59,-542.59 579.1,-537.17 570.63,-537.35 572.59,-542.59"/>
</g>
<!-- node_0x577fa8d64c60 -->
<g id="node16" class="node">
<title>node_0x577fa8d64c60</title>
<ellipse fill="#e8f0fe" stroke="black" cx="284.95" cy="-450" rx="27" ry="18"/>
<text text-anchor="middle" x="284.95" y="-446.3" font-family="Arial" font-size="14.00">x</text>
</g>
<!-- node_0x577fa8d64d60&#45;&gt;node_0x577fa8d64c60 -->
<g id="edge15" class="edge">
<title>node_0x577fa8d64d60&#45;&gt;node_0x577fa8d64c60</title>
<path fill="none" stroke="#555555" d="M331.93,-505.81C323.51,-496 312.44,-483.08 303.16,-472.25"/>
<polygon fill="#555555" stroke="#555555" points="305.27,-470.41 297.94,-466.16 301.02,-474.06 305.27,-470.41"/>
</g>
<!-- node_0x577fa8d64cf0 -->
<g id="node17" class="node">
<title>node_0x577fa8d64cf0</title>
<ellipse fill="#e8f0fe" stroke="black" cx="356.95" cy="-450" rx="27" ry="18"/>
<text text-anchor="middle" x="356.95" y="-446.3" font-family="Arial" font-size="14.00">y</text>
</g>
<!-- node_0x577fa8d64d60&#45;&gt;node_0x577fa8d64cf0 -->
<g id="edge16" class="edge">
<title>node_0x577fa8d64d60&#45;&gt;node_0x577fa8d64cf0</title>
<path fill="none" stroke="#555555" d="M347.85,-504.05C349.27,-495.75 351.02,-485.58 352.59,-476.38"/>
<polygon fill="#555555" stroke="#555555" points="355.39,-476.63 353.98,-468.28 349.87,-475.69 355.39,-476.63"/>
</g>
<!-- node_0x577fa8d64e00 -->
<g id="node19" class="node">
<title>node_0x577fa8d64e00</title>
<ellipse fill="#e8f0fe" stroke="black" cx="459.95" cy="-450" rx="47.39" ry="18"/>
<text text-anchor="middle" x="459.95" y="-446.3" font-family="Arial" font-size="14.00">RETURN</text>
</g>
<!-- node_0x577fa8d64e50&#45;&gt;node_0x577fa8d64e00 -->
<g id="edge18" class="edge">
<title>node_0x577fa8d64e50&#45;&gt;node_0x577fa8d64e00</title>
<path fill="none" stroke="#555555" d="M459.95,-503.7C459.95,-495.39 459.95,-485.28 459.95,-476.14"/>
<polygon fill="#555555" stroke="#555555" points="462.75,-476.1 459.95,-468.1 457.15,-476.1 462.75,-476.1"/>
</g>
<!-- node_0x577fa8d64db0 -->
<g id="node20" class="node">
<title>node_0x577fa8d64db0</title>
<ellipse fill="#e8f0fe" stroke="black" cx="459.95" cy="-378" rx="27" ry="18"/>
<text text-anchor="middle" x="459.95" y="-374.3" font-family="Arial" font-size="14.00">true</text>
</g>
<!-- node_0x577fa8d64e00&#45;&gt;node_0x577fa8d64db0 -->
<g id="edge19" class="edge">
<title>node_0x577fa8d64e00&#45;&gt;node_0x577fa8d64db0</title>
<path fill="none" stroke="#555555" d="M459.95,-431.7C459.95,-423.39 459.95,-413.28 459.95,-404.14"/>
<polygon fill="#555555" stroke="#555555" points="462.75,-404.1 459.95,-396.1 457.15,-404.1 462.75,-404.1"/>
</g>
<!-- node_0x577fa8d64ef0 -->
<g id="node22" class="node">
<title>node_0x577fa8d64ef0</title>
<ellipse fill="#e8f0fe" stroke="black" cx="616.95" cy="-450" rx="47.39" ry="18"/>
<text text-anchor="middle" x="616.95" y="-446.3" font-family="Arial" font-size="14.00">RETURN</text>
</g>
<!-- node_0x577fa8d64f40&#45;&gt;node_0x577fa8d64ef0 -->
<g id="edge21" class="edge">
<title>node_0x577fa8d64f40&#45;&gt;node_0x577fa8d64ef0</title>
<path fill="none" stroke="#555555" d="M616.95,-503.7C616.95,-495.39 616.95,-485.28 616.95,-476.14"/>
<polygon fill="#555555" stroke="#555555" points="619.75,-476.1 616.95,-468.1 614.15,-476.1 619.75,-476.1"/>
</g>
<!-- node_0x577fa8d64ea0 -->
<g id="node23" class="node">
<title>node_0x577fa8d64ea0</title>
<ellipse fill="#e8f0fe" stroke="black" cx="616.95" cy="-378" rx="29.5" ry="18"/>
<text text-anchor="middle" x="616.95" y="-374.3" font-family="Arial" font-size="14.00">false</text>
</g>
<!-- node_0x577fa8d64ef0&#45;&gt;node_0x577fa8d64ea0 -->
<g id="edge22" class="edge">
<title>node_0x577fa8d64ef0&#45;&gt;node_0x577fa8d64ea0</title>
<path fill="none" stroke="#555555" d="M616.95,-431.7C616.95,-423.39 616.95,-413.28 616.95,-404.14"/>
<polygon fill="#555555" stroke="#555555" points="619.75,-404.1 616.95,-396.1 614.15,-404.1 619.75,-404.1"/>
</g>
<!-- node_0x577fa8d65ba0 -->
<g id="node25" class="node">
<title>node_0x577fa8d65ba0</title>
<ellipse fill="#e8f0fe" stroke="black" cx="599.95" cy="-666" rx="77.99" ry="18"/>
<text text-anchor="middle" x="599.95" y="-662.3" font-family="Arial" font-size="14.00">METHOD_DECL</text>
</g>
<!-- node_0x577fa8d65bf0&#45;&gt;node_0x577fa8d65ba0 -->
<g id="edge24" class="edge">
<title>node_0x577fa8d65bf0&#45;&gt;node_0x577fa8d65ba0</title>
<path fill="none" stroke="#555555" d="M557.5,-720.05C564.65,-711.11 573.54,-700.01 581.33,-690.27"/>
<polygon fill="#555555" stroke="#555555" points="583.7,-691.79 586.51,-683.79 579.33,-688.29 583.7,-691.79"/>
</g>
<!-- node_0x577fa8d65ae0 -->
<g id="node26" class="node">
<title>node_0x577fa8d65ae0</title>
<ellipse fill="#e8f0fe" stroke="black" cx="530.95" cy="-594" rx="32.49" ry="18"/>
<text text-anchor="middle" x="530.95" y="-590.3" font-family="Arial" font-size="14.00">VOID</text>
</g>
<!-- node_0x577fa8d65ba0&#45;&gt;node_0x577fa8d65ae0 -->
<g id="edge25" class="edge">
<title>node_0x577fa8d65ba0&#45;&gt;node_0x577fa8d65ae0</title>
<path fill="none" stroke="#555555" d="M583.24,-648.05C573.77,-638.45 561.84,-626.34 551.77,-616.12"/>
<polygon fill="#555555" stroke="#555555" points="553.69,-614.09 546.08,-610.36 549.7,-618.02 553.69,-614.09"/>
</g>
<!-- node_0x577fa8d65b30 -->
<g id="node27" class="node">
<title>node_0x577fa8d65b30</title>
<ellipse fill="#e8f0fe" stroke="black" cx="611.95" cy="-594" rx="30.59" ry="18"/>
<text text-anchor="middle" x="611.95" y="-590.3" font-family="Arial" font-size="14.00">main</text>
</g>
<!-- node_0x577fa8d65ba0&#45;&gt;node_0x577fa8d65b30 -->
<g id="edge26" class="edge">
<title>node_0x577fa8d65ba0&#45;&gt;node_0x577fa8d65b30</title>
<path fill="none" stroke="#555555" d="M602.91,-647.7C604.34,-639.39 606.07,-629.28 607.64,-620.14"/>
<polygon fill="#555555" stroke="#555555" points="610.42,-620.46 609.01,-612.1 604.9,-619.52 610.42,-620.46"/>
</g>
<!-- node_0x577fa8d65a90 -->
<g id="node28" class="node">
<title>node_0x577fa8d65a90</title>
<ellipse fill="#e8f0fe" stroke="black" cx="760.95" cy="-594" rx="76.09" ry="18"/>
<text text-anchor="middle" x="760.95" y="-590.3" font-family="Arial" font-size="14.00">BLOCK_ELEMS</text>
</g>
<!-- node_0x577fa8d65ba0&#45;&gt;node_0x577fa8d65a90 -->
<g id="edge27" class="edge">
<title>node_0x577fa8d65ba0&#45;&gt;node_0x577fa8d65a90</title>
<path fill="none" stroke="#555555" d="M634.88,-649.81C659.54,-639.09 692.71,-624.67 718.84,-613.31"/>
<polygon fill="#555555" stroke="#555555" points="720.14,-615.8 726.36,-610.04 717.9,-610.66 720.14,-615.8"/>
</g>
<!-- node_0x577fa8d651f0 -->
<g id="node29" class="node">
<title>node_0x577fa8d651f0</title>
<ellipse fill="#e8f0fe" stroke="black" cx="760.95" cy="-522" rx="56.59" ry="18"/>
<text text-anchor="middle" x="760.95" y="-518.3" font-family="Arial" font-size="14.00">VAR_DECL</text>
</g>
<!-- node_0x577fa8d65a90&#45;&gt;node_0x577fa8d651f0 -->
<g id="edge28" class="edge">
<title>node_0x577fa8d65a90&#45;&gt;node_0x577fa8d651f0</title>
<path fill="none" stroke="#555555" d="M760.95,-575.7C760.95,-567.39 760.95,-557.28 760.95,-548.14"/>
<polygon fill="#555555" stroke="#555555" points="763.75,-548.1 760.95,-540.1 758.15,-548.1 763.75,-548.1"/>
</g>
<!-- node_0x577fa8d65a40 -->
<g id="node32" class="node">
<title>node_0x577fa8d65a40</title>
<ellipse fill="#e8f0fe" stroke="black" cx="904.95" cy="-522" rx="69.59" ry="18"/>
<text text-anchor="middle" x="904.95" y="-518.3" font-family="Arial" font-size="14.00">STATEMENTS</text>
</g>
<!-- node_0x577fa8d65a90&#45;&gt;node_0x577fa8d65a40 -->
<g id="edge31" class="edge">
<title>node_0x577fa8d65a90&#45;&gt;node_0x577fa8d65a40</title>
<path fill="none" stroke="#555555" d="M792.9,-577.46C814.59,-566.92 843.37,-552.93 866.34,-541.77"/>
<polygon fill="#555555" stroke="#555555" points="867.6,-544.27 873.57,-538.25 865.15,-539.23 867.6,-544.27"/>
</g>
<!-- node_0x577fa8d65110 -->
<g id="node30" class="node">
<title>node_0x577fa8d65110</title>
<ellipse fill="#e8f0fe" stroke="black" cx="715.95" cy="-450" rx="27" ry="18"/>
<text text-anchor="middle" x="715.95" y="-446.3" font-family="Arial" font-size="14.00">INT</text>
</g>
<!-- node_0x577fa8d651f0&#45;&gt;node_0x577fa8d65110 -->
<g id="edge29" class="edge">
<title>node_0x577fa8d651f0&#45;&gt;node_0x577fa8d65110</title>
<path fill="none" stroke="#555555" d="M750.05,-504.05C744.19,-494.94 736.88,-483.57 730.54,-473.7"/>
<polygon fill="#555555" stroke="#555555" points="732.8,-472.04 726.12,-466.83 728.09,-475.07 732.8,-472.04"/>
</g>
<!-- node_0x577fa8d65180 -->
<g id="node31" class="node">
<title>node_0x577fa8d65180</title>
<ellipse fill="#e8f0fe" stroke="black" cx="787.95" cy="-450" rx="27" ry="18"/>
<text text-anchor="middle" x="787.95" y="-446.3" font-family="Arial" font-size="14.00">x</text>
</g>
<!-- node_0x577fa8d651f0&#45;&gt;node_0x577fa8d65180 -->
<g id="edge30" class="edge">
<title>node_0x577fa8d651f0&#45;&gt;node_0x577fa8d65180</title>
<path fill="none" stroke="#555555" d="M767.48,-504.05C770.8,-495.46 774.89,-484.86 778.53,-475.4"/>
<polygon fill="#555555" stroke="#555555" points="781.2,-476.26 781.47,-467.79 775.98,-474.25 781.2,-476.26"/>
</g>
<!-- node_0x577fa8d65320 -->
<g id="node33" class="node">
<title>node_0x577fa8d65320</title>
<ellipse fill="#e8f0fe" stroke="black" cx="900.95" cy="-450" rx="63.89" ry="18"/>
<text text-anchor="middle" x="900.95" y="-446.3" font-family="Arial" font-size="14.00">ASSIGMENT</text>
</g>
<!-- node_0x577fa8d65a40&#45;&gt;node_0x577fa8d65320 -->
<g id="edge32" class="edge">
<title>node_0x577fa8d65a40&#45;&gt;node_0x577fa8d65320</title>
<path fill="none" stroke="#555555" d="M903.96,-503.7C903.48,-495.39 902.9,-485.28 902.38,-476.14"/>
<polygon fill="#555555" stroke="#555555" points="905.17,-475.93 901.92,-468.1 899.58,-476.25 905.17,-475.93"/>
</g>
<!-- node_0x577fa8d659f0 -->
<g id="node36" class="node">
<title>node_0x577fa8d659f0</title>
<ellipse fill="#e8f0fe" stroke="black" cx="1051.95" cy="-450" rx="69.59" ry="18"/>
<text text-anchor="middle" x="1051.95" y="-446.3" font-family="Arial" font-size="14.00">STATEMENTS</text>
</g>
<!-- node_0x577fa8d65a40&#45;&gt;node_0x577fa8d659f0 -->
<g id="edge35" class="edge">
<title>node_0x577fa8d65a40&#45;&gt;node_0x577fa8d659f0</title>
<path fill="none" stroke="#555555" d="M936.84,-505.81C959.17,-495.18 989.13,-480.91 1012.89,-469.6"/>
<polygon fill="#555555" stroke="#555555" points="1014.34,-472.01 1020.36,-466.04 1011.94,-466.95 1014.34,-472.01"/>
</g>
<!-- node_0x577fa8d652b0 -->
<g id="node34" class="node">
<title>node_0x577fa8d652b0</title>
<ellipse fill="#e8f0fe" stroke="black" cx="838.95" cy="-378" rx="27" ry="18"/>
<text text-anchor="middle" x="838.95" y="-374.3" font-family="Arial" font-size="14.00">x</text>
</g>
<!-- node_0x577fa8d65320&#45;&gt;node_0x577fa8d652b0 -->
<g id="edge33" class="edge">
<title>node_0x577fa8d65320&#45;&gt;node_0x577fa8d652b0</title>
<path fill="none" stroke="#555555" d="M886.25,-432.41C877.71,-422.77 866.86,-410.52 857.71,-400.19"/>
<polygon fill="#555555" stroke="#555555" points="859.67,-398.17 852.26,-394.04 855.47,-401.88 859.67,-398.17"/>
</g>
<!-- node_0x577fa8d65260 -->
<g id="node35" class="node">
<title>node_0x577fa8d65260</title>
<ellipse fill="#e8f0fe" stroke="black" cx="910.95" cy="-378" rx="27" ry="18"/>
<text text-anchor="middle" x="910.95" y="-374.3" font-family="Arial" font-size="14.00">80</text>
</g>
<!-- node_0x577fa8d65320&#45;&gt;node_0x577fa8d65260 -->
<g id="edge34" class="edge">
<title>node_0x577fa8d65320&#45;&gt;node_0x577fa8d65260</title>
<path fill="none" stroke="#555555" d="M903.42,-431.7C904.6,-423.39 906.05,-413.28 907.35,-404.14"/>
<polygon fill="#555555" stroke="#555555" points="910.14,-404.42 908.5,-396.1 904.6,-403.63 910.14,-404.42"/>
</g>
<!-- node_0x577fa8d65450 -->
<g id="node37" class="node">
<title>node_0x577fa8d65450</title>
<ellipse fill="#e8f0fe" stroke="black" cx="1040.95" cy="-378" rx="63.89" ry="18"/>
<text text-anchor="middle" x="1040.95" y="-374.3" font-family="Arial" font-size="14.00">ASSIGMENT</text>
</g>
<!-- node_0x577fa8d659f0&#45;&gt;node_0x577fa8d65450 -->
<g id="edge36" class="edge">
<title>node_0x577fa8d659f0&#45;&gt;node_0x577fa8d65450</title>
<path fill="none" stroke="#555555" d="M1049.23,-431.7C1047.92,-423.39 1046.33,-413.28 1044.9,-404.14"/>
<polygon fill="#555555" stroke="#555555" points="1047.64,-403.57 1043.63,-396.1 1042.11,-404.44 1047.64,-403.57"/>
</g>
<!-- node_0x577fa8d659a0 -->
<g id="node40" class="node">
<title>node_0x577fa8d659a0</title>
<ellipse fill="#e8f0fe" stroke="black" cx="1191.95" cy="-378" rx="69.59" ry="18"/>
<text text-anchor="middle" x="1191.95" y="-374.3" font-family="Arial" font-size="14.00">STATEMENTS</text>
</g>
<!-- node_0x577fa8d659f0&#45;&gt;node_0x577fa8d659a0 -->
<g id="edge39" class="edge">
<title>node_0x577fa8d659f0&#45;&gt;node_0x577fa8d659a0</title>
<path fill="none" stroke="#555555" d="M1082.67,-433.64C1103.64,-423.15 1131.57,-409.19 1153.94,-398"/>
<polygon fill="#555555" stroke="#555555" points="1155.39,-400.41 1161.29,-394.33 1152.89,-395.4 1155.39,-400.41"/>
</g>
<!-- node_0x577fa8d653e0 -->
<g id="node38" class="node">
<title>node_0x577fa8d653e0</title>
<ellipse fill="#e8f0fe" stroke="black" cx="1002.95" cy="-306" rx="27" ry="18"/>
<text text-anchor="middle" x="1002.95" y="-302.3" font-family="Arial" font-size="14.00">y</text>
</g>
<!-- node_0x577fa8d65450&#45;&gt;node_0x577fa8d653e0 -->
<g id="edge37" class="edge">
<title>node_0x577fa8d65450&#45;&gt;node_0x577fa8d653e0</title>
<path fill="none" stroke="#555555" d="M1031.75,-360.05C1026.92,-351.16 1020.92,-340.11 1015.65,-330.41"/>
<polygon fill="#555555" stroke="#555555" points="1018.08,-329 1011.8,-323.31 1013.15,-331.67 1018.08,-329"/>
</g>
<!-- node_0x577fa8d65390 -->
<g id="node39" class="node">
<title>node_0x577fa8d65390</title>
<ellipse fill="#e8f0fe" stroke="black" cx="1074.95" cy="-306" rx="27" ry="18"/>
<text text-anchor="middle" x="1074.95" y="-302.3" font-family="Arial" font-size="14.00">40</text>
</g>
<!-- node_0x577fa8d65450&#45;&gt;node_0x577fa8d65390 -->
<g id="edge38" class="edge">
<title>node_0x577fa8d65450&#45;&gt;node_0x577fa8d65390</title>
<path fill="none" stroke="#555555" d="M1049.18,-360.05C1053.46,-351.24 1058.76,-340.33 1063.44,-330.69"/>
<polygon fill="#555555" stroke="#555555" points="1066.05,-331.73 1067.02,-323.31 1061.01,-329.28 1066.05,-331.73"/>
</g>
<!-- node_0x577fa8d65950 -->
<g id="node41" class="node">
<title>node_0x577fa8d65950</title>
<ellipse fill="#e8f0fe" stroke="black" cx="1191.95" cy="-306" rx="38.99" ry="18"/>
<text text-anchor="middle" x="1191.95" y="-302.3" font-family="Arial" font-size="14.00">WHILE</text>
</g>
<!-- node_0x577fa8d659a0&#45;&gt;node_0x577fa8d65950 -->
<g id="edge40" class="edge">
<title>node_0x577fa8d659a0&#45;&gt;node_0x577fa8d65950</title>
<path fill="none" stroke="#555555" d="M1191.95,-359.7C1191.95,-351.39 1191.95,-341.28 1191.95,-332.14"/>
<polygon fill="#555555" stroke="#555555" points="1194.75,-332.1 1191.95,-324.1 1189.15,-332.1 1194.75,-332.1"/>
</g>
<!-- node_0x577fa8d656a0 -->
<g id="node42" class="node">
<title>node_0x577fa8d656a0</title>
<ellipse fill="#e8f0fe" stroke="black" cx="1109.95" cy="-234" rx="76.89" ry="18"/>
<text text-anchor="middle" x="1109.95" y="-230.3" font-family="Arial" font-size="14.00">METHOD_CALL</text>
</g>
<!-- node_0x577fa8d65950&#45;&gt;node_0x577fa8d656a0 -->
<g id="edge41" class="edge">
<title>node_0x577fa8d65950&#45;&gt;node_0x577fa8d656a0</title>
<path fill="none" stroke="#555555" d="M1174.15,-289.81C1162.92,-280.22 1148.23,-267.68 1135.73,-257.01"/>
<polygon fill="#555555" stroke="#555555" points="1137.33,-254.69 1129.42,-251.63 1133.69,-258.95 1137.33,-254.69"/>
</g>
<!-- node_0x577fa8d65900 -->
<g id="node47" class="node">
<title>node_0x577fa8d65900</title>
<ellipse fill="#e8f0fe" stroke="black" cx="1273.95" cy="-234" rx="69.59" ry="18"/>
<text text-anchor="middle" x="1273.95" y="-230.3" font-family="Arial" font-size="14.00">STATEMENTS</text>
</g>
<!-- node_0x577fa8d65950&#45;&gt;node_0x577fa8d65900 -->
<g id="edge46" class="edge">
<title>node_0x577fa8d65950&#45;&gt;node_0x577fa8d65900</title>
<path fill="none" stroke="#555555" d="M1209.74,-289.81C1221.05,-280.15 1235.87,-267.5 1248.43,-256.78"/>
<polygon fill="#555555" stroke="#555555" points="1250.49,-258.7 1254.76,-251.38 1246.85,-254.44 1250.49,-258.7"/>
</g>
<!-- node_0x577fa8d65630 -->
<g id="node43" class="node">
<title>node_0x577fa8d65630</title>
<ellipse fill="#e8f0fe" stroke="black" cx="1003.95" cy="-162" rx="42.49" ry="18"/>
<text text-anchor="middle" x="1003.95" y="-158.3" font-family="Arial" font-size="14.00">isBigger</text>
</g>
<!-- node_0x577fa8d656a0&#45;&gt;node_0x577fa8d65630 -->
<g id="edge42" class="edge">
<title>node_0x577fa8d656a0&#45;&gt;node_0x577fa8d65630</title>
<path fill="none" stroke="#555555" d="M1085.36,-216.76C1069.63,-206.37 1049.15,-192.85 1032.67,-181.97"/>
<polygon fill="#555555" stroke="#555555" points="1034.1,-179.55 1025.88,-177.48 1031.01,-184.23 1034.1,-179.55"/>
</g>
<!-- node_0x577fa8d655e0 -->
<g id="node44" class="node">
<title>node_0x577fa8d655e0</title>
<ellipse fill="#e8f0fe" stroke="black" cx="1121.95" cy="-162" rx="57.69" ry="18"/>
<text text-anchor="middle" x="1121.95" y="-158.3" font-family="Arial" font-size="14.00">LIST_EXPR</text>
</g>
<!-- node_0x577fa8d656a0&#45;&gt;node_0x577fa8d655e0 -->
<g id="edge43" class="edge">
<title>node_0x577fa8d656a0&#45;&gt;node_0x577fa8d655e0</title>
<path fill="none" stroke="#555555" d="M1112.91,-215.7C1114.34,-207.39 1116.07,-197.28 1117.64,-188.14"/>
<polygon fill="#555555" stroke="#555555" points="1120.42,-188.46 1119.01,-180.1 1114.9,-187.52 1120.42,-188.46"/>
</g>
<!-- node_0x577fa8d654e0 -->
<g id="node45" class="node">
<title>node_0x577fa8d654e0</title>
<ellipse fill="#e8f0fe" stroke="black" cx="1072.95" cy="-90" rx="27" ry="18"/>
<text text-anchor="middle" x="1072.95" y="-86.3" font-family="Arial" font-size="14.00">x</text>
</g>
<!-- node_0x577fa8d655e0&#45;&gt;node_0x577fa8d654e0 -->
<g id="edge44" class="edge">
<title>node_0x577fa8d655e0&#45;&gt;node_0x577fa8d654e0</title>
<path fill="none" stroke="#555555" d="M1110.08,-144.05C1103.64,-134.85 1095.59,-123.35 1088.63,-113.41"/>
<polygon fill="#555555" stroke="#555555" points="1090.91,-111.78 1084.03,-106.83 1086.32,-114.99 1090.91,-111.78"/>
</g>
<!-- node_0x577fa8d65570 -->
<g id="node46" class="node">
<title>node_0x577fa8d65570</title>
<ellipse fill="#e8f0fe" stroke="black" cx="1144.95" cy="-90" rx="27" ry="18"/>
<text text-anchor="middle" x="1144.95" y="-86.3" font-family="Arial" font-size="14.00">y</text>
</g>
<!-- node_0x577fa8d655e0&#45;&gt;node_0x577fa8d65570 -->
<g id="edge45" class="edge">
<title>node_0x577fa8d655e0&#45;&gt;node_0x577fa8d65570</title>
<path fill="none" stroke="#555555" d="M1127.51,-144.05C1130.34,-135.46 1133.82,-124.86 1136.93,-115.4"/>
<polygon fill="#555555" stroke="#555555" points="1139.59,-116.26 1139.43,-107.79 1134.27,-114.52 1139.59,-116.26"/>
</g>
<!-- node_0x577fa8d658b0 -->
<g id="node48" class="node">
<title>node_0x577fa8d658b0</title>
<ellipse fill="#e8f0fe" stroke="black" cx="1273.95" cy="-162" rx="63.89" ry="18"/>
<text text-anchor="middle" x="1273.95" y="-158.3" font-family="Arial" font-size="14.00">ASSIGMENT</text>
</g>
<!-- node_0x577fa8d65900&#45;&gt;node_0x577fa8d658b0 -->
<g id="edge47" class="edge">
<title>node_0x577fa8d65900&#45;&gt;node_0x577fa8d658b0</title>
<path fill="none" stroke="#555555" d="M1273.95,-215.7C1273.95,-207.39 1273.95,-197.28 1273.95,-188.14"/>
<polygon fill="#555555" stroke="#555555" points="1276.75,-188.1 1273.95,-180.1 1271.15,-188.1 1276.75,-188.1"/>
</g>
<!-- node_0x577fa8d65840 -->
<g id="node49" class="node">
<title>node_0x577fa8d65840</title>
<ellipse fill="#e8f0fe" stroke="black" cx="1250.95" cy="-90" rx="27" ry="18"/>
<text text-anchor="middle" x="1250.95" y="-86.3" font-family="Arial" font-size="14.00">x</text>
</g>
<!-- node_0x577fa8d658b0&#45;&gt;node_0x577fa8d65840 -->
<g id="edge48" class="edge">
<title>node_0x577fa8d658b0&#45;&gt;node_0x577fa8d65840</title>
<path fill="none" stroke="#555555" d="M1268.38,-144.05C1265.55,-135.46 1262.07,-124.86 1258.96,-115.4"/>
<polygon fill="#555555" stroke="#555555" points="1261.62,-114.52 1256.46,-107.79 1256.3,-116.26 1261.62,-114.52"/>
</g>
<!-- node_0x577fa8d657f0 -->
<g id="node50" class="node">
<title>node_0x577fa8d657f0</title>
<ellipse fill="#e8f0fe" stroke="black" cx="1322.95" cy="-90" rx="27" ry="18"/>
<text text-anchor="middle" x="1322.95" y="-86.3" font-family="Arial" font-size="14.00">&#45;</text>
</g>
<!-- node_0x577fa8d658b0&#45;&gt;node_0x577fa8d657f0 -->
<g id="edge49" class="edge">
<title>node_0x577fa8d658b0&#45;&gt;node_0x577fa8d657f0</title>
<path fill="none" stroke="#555555" d="M1285.81,-144.05C1292.25,-134.85 1300.3,-123.35 1307.26,-113.41"/>
<polygon fill="#555555" stroke="#555555" points="1309.57,-114.99 1311.86,-106.83 1304.98,-111.78 1309.57,-114.99"/>
</g>
<!-- node_0x577fa8d65730 -->
<g id="node51" class="node">
<title>node_0x577fa8d65730</title>
<ellipse fill="#e8f0fe" stroke="black" cx="1286.95" cy="-18" rx="27" ry="18"/>
<text text-anchor="middle" x="1286.95" y="-14.3" font-family="Arial" font-size="14.00">x</text>
</g>
<!-- node_0x577fa8d657f0&#45;&gt;node_0x577fa8d65730 -->
<g id="edge50" class="edge">
<title>node_0x577fa8d657f0&#45;&gt;node_0x577fa8d65730</title>
<path fill="none" stroke="#555555" d="M1314.6,-72.76C1309.96,-63.75 1304.11,-52.39 1298.99,-42.43"/>
<polygon fill="#555555" stroke="#555555" points="1301.4,-40.98 1295.25,-35.15 1296.42,-43.54 1301.4,-40.98"/>
</g>
<!-- node_0x577fa8d657a0 -->
<g id="node52" class="node">
<title>node_0x577fa8d657a0</title>
<ellipse fill="#e8f0fe" stroke="black" cx="1358.95" cy="-18" rx="27" ry="18"/>
<text text-anchor="middle" x="1358.95" y="-14.3" font-family="Arial" font-size="14.00">1</text>
</g>
<!-- node_0x577fa8d657f0&#45;&gt;node_0x577fa8d657a0 -->
<g id="edge51" class="edge">
<title>node_0x577fa8d657f0&#45;&gt;node_0x577fa8d657a0</title>
<path fill="none" stroke="#555555" d="M1331.29,-72.76C1335.93,-63.75 1341.78,-52.39 1346.9,-42.43"/>
<polygon fill="#555555" stroke="#555555" points="1349.47,-43.54 1350.64,-35.15 1344.49,-40.98 1349.47,-43.54"/>
</g>
</g>
</svg>
