<?xml version="1.0" encoding="UTF-8" standalone="no"?>
<!DOCTYPE svg PUBLIC "-//W3C//DTD SVG 1.1//EN"
 "http://www.w3.org/Graphics/SVG/1.1/DTD/svg11.dtd">
<!-- Generated by graphviz version 2.43.0 (0)
 -->
<!-- Title: AST Pages: 1 -->
<svg width="1204pt" height="908pt"
 viewBox="0.00 0.00 1204.24 908.00" xmlns="http://www.w3.org/2000/svg" xmlns:xlink="http://www.w3.org/1999/xlink">
<g id="graph0" class="graph" transform="scale(1 1) rotate(0) translate(4 904)">
<title>AST</title>
<polygon fill="white" stroke="transparent" points="-4,4 -4,-904 1200.24,-904 1200.24,4 -4,4"/>
<!-- node_0x5701af1fc7d0 -->
<g id="node1" class="node">
<title>node_0x5701af1fc7d0</title>
<ellipse fill="#e8f0fe" stroke="black" cx="184" cy="-882" rx="27" ry="18"/>
<text text-anchor="middle" x="184" y="-878.3" font-family="Arial" font-size="14.00">P</text>
</g>
<!-- node_0x5701af1fc780 -->
<g id="node2" class="node">
<title>node_0x5701af1fc780</title>
<ellipse fill="#e8f0fe" stroke="black" cx="184" cy="-810" rx="98.58" ry="18"/>
<text text-anchor="middle" x="184" y="-806.3" font-family="Arial" font-size="14.00">GLOBAL_DECL_LIST</text>
</g>
<!-- node_0x5701af1fc7d0&#45;&gt;node_0x5701af1fc780 -->
<g id="edge1" class="edge">
<title>node_0x5701af1fc7d0&#45;&gt;node_0x5701af1fc780</title>
<path fill="none" stroke="#555555" d="M184,-863.7C184,-855.39 184,-845.28 184,-836.14"/>
<polygon fill="#555555" stroke="#555555" points="186.8,-836.1 184,-828.1 181.2,-836.1 186.8,-836.1"/>
</g>
<!-- node_0x5701af1fba00 -->
<g id="node3" class="node">
<title>node_0x5701af1fba00</title>
<ellipse fill="#e8f0fe" stroke="black" cx="96" cy="-738" rx="56.59" ry="18"/>
<text text-anchor="middle" x="96" y="-734.3" font-family="Arial" font-size="14.00">VAR_DECL</text>
</g>
<!-- node_0x5701af1fc780&#45;&gt;node_0x5701af1fba00 -->
<g id="edge2" class="edge">
<title>node_0x5701af1fc780&#45;&gt;node_0x5701af1fba00</title>
<path fill="none" stroke="#555555" d="M162.69,-792.05C150.65,-782.48 135.49,-770.41 122.66,-760.21"/>
<polygon fill="#555555" stroke="#555555" points="124.2,-757.86 116.2,-755.07 120.71,-762.24 124.2,-757.86"/>
</g>
<!-- node_0x5701af1fc730 -->
<g id="node6" class="node">
<title>node_0x5701af1fc730</title>
<ellipse fill="#e8f0fe" stroke="black" cx="272" cy="-738" rx="101.28" ry="18"/>
<text text-anchor="middle" x="272" y="-734.3" font-family="Arial" font-size="14.00">METHOD_DECL_LIST</text>
</g>
<!-- node_0x5701af1fc780&#45;&gt;node_0x5701af1fc730 -->
<g id="edge5" class="edge">
<title>node_0x5701af1fc780&#45;&gt;node_0x5701af1fc730</title>
<path fill="none" stroke="#555555" d="M205.3,-792.05C217.08,-782.68 231.85,-770.93 244.5,-760.87"/>
<polygon fill="#555555" stroke="#555555" points="246.37,-762.96 250.89,-755.79 242.89,-758.58 246.37,-762.96"/>
</g>
<!-- node_0x5701af1fb920 -->
<g id="node4" class="node">
<title>node_0x5701af1fb920</title>
<ellipse fill="#e8f0fe" stroke="black" cx="39" cy="-666" rx="38.99" ry="18"/>
<text text-anchor="middle" x="39" y="-662.3" font-family="Arial" font-size="14.00">FLOAT</text>
</g>
<!-- node_0x5701af1fba00&#45;&gt;node_0x5701af1fb920 -->
<g id="edge3" class="edge">
<title>node_0x5701af1fba00&#45;&gt;node_0x5701af1fb920</title>
<path fill="none" stroke="#555555" d="M82.49,-720.41C74.93,-711.12 65.4,-699.42 57.19,-689.34"/>
<polygon fill="#555555" stroke="#555555" points="59.24,-687.42 52.02,-682.99 54.9,-690.96 59.24,-687.42"/>
</g>
<!-- node_0x5701af1fb990 -->
<g id="node5" class="node">
<title>node_0x5701af1fb990</title>
<ellipse fill="#e8f0fe" stroke="black" cx="123" cy="-666" rx="27" ry="18"/>
<text text-anchor="middle" x="123" y="-662.3" font-family="Arial" font-size="14.00">x</text>
</g>
<!-- node_0x5701af1fba00&#45;&gt;node_0x5701af1fb990 -->
<g id="edge4" class="edge">
<title>node_0x5701af1fba00&#45;&gt;node_0x5701af1fb990</title>
<path fill="none" stroke="#555555" d="M102.53,-720.05C105.85,-711.46 109.94,-700.86 113.59,-691.4"/>
<polygon fill="#555555" stroke="#555555" points="116.25,-692.26 116.52,-683.79 111.03,-690.25 116.25,-692.26"/>
</g>
<!-- node_0x5701af1fc6e0 -->
<g id="node7" class="node">
<title>node_0x5701af1fc6e0</title>
<ellipse fill="#e8f0fe" stroke="black" cx="272" cy="-666" rx="77.99" ry="18"/>
<text text-anchor="middle" x="272" y="-662.3" font-family="Arial" font-size="14.00">METHOD_DECL</text>
</g>
<!-- node_0x5701af1fc730&#45;&gt;node_0x5701af1fc6e0 -->
<g id="edge6" class="edge">
<title>node_0x5701af1fc730&#45;&gt;node_0x5701af1fc6e0</title>
<path fill="none" stroke="#555555" d="M272,-719.7C272,-711.39 272,-701.28 272,-692.14"/>
<polygon fill="#555555" stroke="#555555" points="274.8,-692.1 272,-684.1 269.2,-692.1 274.8,-692.1"/>
</g>
<!-- node_0x5701af1fc620 -->
<g id="node8" class="node">
<title>node_0x5701af1fc620</title>
<ellipse fill="#e8f0fe" stroke="black" cx="191" cy="-594" rx="32.49" ry="18"/>
<text text-anchor="middle" x="191" y="-590.3" font-family="Arial" font-size="14.00">VOID</text>
</g>
<!-- node_0x5701af1fc6e0&#45;&gt;node_0x5701af1fc620 -->
<g id="edge7" class="edge">
<title>node_0x5701af1fc6e0&#45;&gt;node_0x5701af1fc620</title>
<path fill="none" stroke="#555555" d="M252.8,-648.41C241.17,-638.36 226.26,-625.47 214,-614.88"/>
<polygon fill="#555555" stroke="#555555" points="215.74,-612.68 207.86,-609.57 212.08,-616.92 215.74,-612.68"/>
</g>
<!-- node_0x5701af1fc670 -->
<g id="node9" class="node">
<title>node_0x5701af1fc670</title>
<ellipse fill="#e8f0fe" stroke="black" cx="272" cy="-594" rx="30.59" ry="18"/>
<text text-anchor="middle" x="272" y="-590.3" font-family="Arial" font-size="14.00">main</text>
</g>
<!-- node_0x5701af1fc6e0&#45;&gt;node_0x5701af1fc670 -->
<g id="edge8" class="edge">
<title>node_0x5701af1fc6e0&#45;&gt;node_0x5701af1fc670</title>
<path fill="none" stroke="#555555" d="M272,-647.7C272,-639.39 272,-629.28 272,-620.14"/>
<polygon fill="#555555" stroke="#555555" points="274.8,-620.1 272,-612.1 269.2,-620.1 274.8,-620.1"/>
</g>
<!-- node_0x5701af1fc5d0 -->
<g id="node10" class="node">
<title>node_0x5701af1fc5d0</title>
<ellipse fill="#e8f0fe" stroke="black" cx="397" cy="-594" rx="76.09" ry="18"/>
<text text-anchor="middle" x="397" y="-590.3" font-family="Arial" font-size="14.00">BLOCK_ELEMS</text>
</g>
<!-- node_0x5701af1fc6e0&#45;&gt;node_0x5701af1fc5d0 -->
<g id="edge9" class="edge">
<title>node_0x5701af1fc6e0&#45;&gt;node_0x5701af1fc5d0</title>
<path fill="none" stroke="#555555" d="M300.36,-649.12C318.5,-638.96 342.17,-625.7 361.55,-614.85"/>
<polygon fill="#555555" stroke="#555555" points="363.13,-617.17 368.74,-610.82 360.4,-612.29 363.13,-617.17"/>
</g>
<!-- node_0x5701af1fbb50 -->
<g id="node11" class="node">
<title>node_0x5701af1fbb50</title>
<ellipse fill="#e8f0fe" stroke="black" cx="322" cy="-522" rx="56.59" ry="18"/>
<text text-anchor="middle" x="322" y="-518.3" font-family="Arial" font-size="14.00">VAR_DECL</text>
</g>
<!-- node_0x5701af1fc5d0&#45;&gt;node_0x5701af1fbb50 -->
<g id="edge10" class="edge">
<title>node_0x5701af1fc5d0&#45;&gt;node_0x5701af1fbb50</title>
<path fill="none" stroke="#555555" d="M379.22,-576.41C369.06,-566.93 356.2,-554.92 345.25,-544.7"/>
<polygon fill="#555555" stroke="#555555" points="347.14,-542.64 339.38,-539.23 343.32,-546.73 347.14,-542.64"/>
</g>
<!-- node_0x5701af1fc580 -->
<g id="node14" class="node">
<title>node_0x5701af1fc580</title>
<ellipse fill="#e8f0fe" stroke="black" cx="473" cy="-522" rx="76.09" ry="18"/>
<text text-anchor="middle" x="473" y="-518.3" font-family="Arial" font-size="14.00">BLOCK_ELEMS</text>
</g>
<!-- node_0x5701af1fc5d0&#45;&gt;node_0x5701af1fc580 -->
<g id="edge13" class="edge">
<title>node_0x5701af1fc5d0&#45;&gt;node_0x5701af1fc580</title>
<path fill="none" stroke="#555555" d="M415.01,-576.41C425.16,-567.06 437.96,-555.27 448.96,-545.14"/>
<polygon fill="#555555" stroke="#555555" points="450.86,-547.19 454.85,-539.71 447.07,-543.07 450.86,-547.19"/>
</g>
<!-- node_0x5701af1fba70 -->
<g id="node12" class="node">
<title>node_0x5701af1fba70</title>
<ellipse fill="#e8f0fe" stroke="black" cx="251" cy="-450" rx="38.99" ry="18"/>
<text text-anchor="middle" x="251" y="-446.3" font-family="Arial" font-size="14.00">FLOAT</text>
</g>
<!-- node_0x5701af1fbb50&#45;&gt;node_0x5701af1fba70 -->
<g id="edge11" class="edge">
<title>node_0x5701af1fbb50&#45;&gt;node_0x5701af1fba70</title>
<path fill="none" stroke="#555555" d="M305.53,-504.76C295.8,-495.18 283.37,-482.92 272.84,-472.53"/>
<polygon fill="#555555" stroke="#555555" points="274.55,-470.29 266.89,-466.67 270.62,-474.28 274.55,-470.29"/>
</g>
<!-- node_0x5701af1fbae0 -->
<g id="node13" class="node">
<title>node_0x5701af1fbae0</title>
<ellipse fill="#e8f0fe" stroke="black" cx="335" cy="-450" rx="27" ry="18"/>
<text text-anchor="middle" x="335" y="-446.3" font-family="Arial" font-size="14.00">y</text>
</g>
<!-- node_0x5701af1fbb50&#45;&gt;node_0x5701af1fbae0 -->
<g id="edge12" class="edge">
<title>node_0x5701af1fbb50&#45;&gt;node_0x5701af1fbae0</title>
<path fill="none" stroke="#555555" d="M325.21,-503.7C326.75,-495.39 328.63,-485.28 330.33,-476.14"/>
<polygon fill="#555555" stroke="#555555" points="333.11,-476.48 331.82,-468.1 327.61,-475.46 333.11,-476.48"/>
</g>
<!-- node_0x5701af1fbc80 -->
<g id="node15" class="node">
<title>node_0x5701af1fbc80</title>
<ellipse fill="#e8f0fe" stroke="black" cx="461" cy="-450" rx="56.59" ry="18"/>
<text text-anchor="middle" x="461" y="-446.3" font-family="Arial" font-size="14.00">VAR_DECL</text>
</g>
<!-- node_0x5701af1fc580&#45;&gt;node_0x5701af1fbc80 -->
<g id="edge14" class="edge">
<title>node_0x5701af1fc580&#45;&gt;node_0x5701af1fbc80</title>
<path fill="none" stroke="#555555" d="M470.03,-503.7C468.61,-495.39 466.87,-485.28 465.31,-476.14"/>
<polygon fill="#555555" stroke="#555555" points="468.04,-475.52 463.93,-468.1 462.52,-476.46 468.04,-475.52"/>
</g>
<!-- node_0x5701af1fc530 -->
<g id="node18" class="node">
<title>node_0x5701af1fc530</title>
<ellipse fill="#e8f0fe" stroke="black" cx="605" cy="-450" rx="69.59" ry="18"/>
<text text-anchor="middle" x="605" y="-446.3" font-family="Arial" font-size="14.00">STATEMENTS</text>
</g>
<!-- node_0x5701af1fc580&#45;&gt;node_0x5701af1fc530 -->
<g id="edge17" class="edge">
<title>node_0x5701af1fc580&#45;&gt;node_0x5701af1fc530</title>
<path fill="none" stroke="#555555" d="M502.62,-505.29C522.2,-494.91 548,-481.23 568.8,-470.2"/>
<polygon fill="#555555" stroke="#555555" points="570.17,-472.64 575.93,-466.42 567.55,-467.69 570.17,-472.64"/>
</g>
<!-- node_0x5701af1fbba0 -->
<g id="node16" class="node">
<title>node_0x5701af1fbba0</title>
<ellipse fill="#e8f0fe" stroke="black" cx="371" cy="-378" rx="53.89" ry="18"/>
<text text-anchor="middle" x="371" y="-374.3" font-family="Arial" font-size="14.00">BOOLEAN</text>
</g>
<!-- node_0x5701af1fbc80&#45;&gt;node_0x5701af1fbba0 -->
<g id="edge15" class="edge">
<title>node_0x5701af1fbc80&#45;&gt;node_0x5701af1fbba0</title>
<path fill="none" stroke="#555555" d="M440.57,-433.12C427.92,-423.27 411.52,-410.52 397.82,-399.86"/>
<polygon fill="#555555" stroke="#555555" points="399.37,-397.52 391.34,-394.82 395.93,-401.94 399.37,-397.52"/>
</g>
<!-- node_0x5701af1fbc10 -->
<g id="node17" class="node">
<title>node_0x5701af1fbc10</title>
<ellipse fill="#e8f0fe" stroke="black" cx="470" cy="-378" rx="27" ry="18"/>
<text text-anchor="middle" x="470" y="-374.3" font-family="Arial" font-size="14.00">a</text>
</g>
<!-- node_0x5701af1fbc80&#45;&gt;node_0x5701af1fbc10 -->
<g id="edge16" class="edge">
<title>node_0x5701af1fbc80&#45;&gt;node_0x5701af1fbc10</title>
<path fill="none" stroke="#555555" d="M463.22,-431.7C464.29,-423.39 465.59,-413.28 466.76,-404.14"/>
<polygon fill="#555555" stroke="#555555" points="469.55,-404.4 467.8,-396.1 464,-403.68 469.55,-404.4"/>
</g>
<!-- node_0x5701af1fbdb0 -->
<g id="node19" class="node">
<title>node_0x5701af1fbdb0</title>
<ellipse fill="#e8f0fe" stroke="black" cx="596" cy="-378" rx="63.89" ry="18"/>
<text text-anchor="middle" x="596" y="-374.3" font-family="Arial" font-size="14.00">ASSIGMENT</text>
</g>
<!-- node_0x5701af1fc530&#45;&gt;node_0x5701af1fbdb0 -->
<g id="edge18" class="edge">
<title>node_0x5701af1fc530&#45;&gt;node_0x5701af1fbdb0</title>
<path fill="none" stroke="#555555" d="M602.77,-431.7C601.7,-423.39 600.4,-413.28 599.23,-404.14"/>
<polygon fill="#555555" stroke="#555555" points="601.99,-403.68 598.2,-396.1 596.44,-404.4 601.99,-403.68"/>
</g>
<!-- node_0x5701af1fc4e0 -->
<g id="node22" class="node">
<title>node_0x5701af1fc4e0</title>
<ellipse fill="#e8f0fe" stroke="black" cx="747" cy="-378" rx="69.59" ry="18"/>
<text text-anchor="middle" x="747" y="-374.3" font-family="Arial" font-size="14.00">STATEMENTS</text>
</g>
<!-- node_0x5701af1fc530&#45;&gt;node_0x5701af1fc4e0 -->
<g id="edge21" class="edge">
<title>node_0x5701af1fc530&#45;&gt;node_0x5701af1fc4e0</title>
<path fill="none" stroke="#555555" d="M635.81,-433.81C657.3,-423.22 686.12,-409.01 709.03,-397.72"/>
<polygon fill="#555555" stroke="#555555" points="710.31,-400.21 716.24,-394.16 707.83,-395.19 710.31,-400.21"/>
</g>
<!-- node_0x5701af1fbd40 -->
<g id="node20" class="node">
<title>node_0x5701af1fbd40</title>
<ellipse fill="#e8f0fe" stroke="black" cx="510" cy="-306" rx="27" ry="18"/>
<text text-anchor="middle" x="510" y="-302.3" font-family="Arial" font-size="14.00">x</text>
</g>
<!-- node_0x5701af1fbdb0&#45;&gt;node_0x5701af1fbd40 -->
<g id="edge19" class="edge">
<title>node_0x5701af1fbdb0&#45;&gt;node_0x5701af1fbd40</title>
<path fill="none" stroke="#555555" d="M576.05,-360.76C563.09,-350.21 546.16,-336.43 532.68,-325.46"/>
<polygon fill="#555555" stroke="#555555" points="534.35,-323.21 526.37,-320.33 530.81,-327.55 534.35,-323.21"/>
</g>
<!-- node_0x5701af1fbcf0 -->
<g id="node21" class="node">
<title>node_0x5701af1fbcf0</title>
<ellipse fill="#e8f0fe" stroke="black" cx="602" cy="-306" rx="47.39" ry="18"/>
<text text-anchor="middle" x="602" y="-302.3" font-family="Arial" font-size="14.00">8.000000</text>
</g>
<!-- node_0x5701af1fbdb0&#45;&gt;node_0x5701af1fbcf0 -->
<g id="edge20" class="edge">
<title>node_0x5701af1fbdb0&#45;&gt;node_0x5701af1fbcf0</title>
<path fill="none" stroke="#555555" d="M597.48,-359.7C598.19,-351.39 599.06,-341.28 599.84,-332.14"/>
<polygon fill="#555555" stroke="#555555" points="602.64,-332.31 600.53,-324.1 597.06,-331.84 602.64,-332.31"/>
</g>
<!-- node_0x5701af1fbfc0 -->
<g id="node23" class="node">
<title>node_0x5701af1fbfc0</title>
<ellipse fill="#e8f0fe" stroke="black" cx="742" cy="-306" rx="63.89" ry="18"/>
<text text-anchor="middle" x="742" y="-302.3" font-family="Arial" font-size="14.00">ASSIGMENT</text>
</g>
<!-- node_0x5701af1fc4e0&#45;&gt;node_0x5701af1fbfc0 -->
<g id="edge22" class="edge">
<title>node_0x5701af1fc4e0&#45;&gt;node_0x5701af1fbfc0</title>
<path fill="none" stroke="#555555" d="M745.76,-359.7C745.17,-351.39 744.44,-341.28 743.79,-332.14"/>
<polygon fill="#555555" stroke="#555555" points="746.58,-331.88 743.22,-324.1 741,-332.28 746.58,-331.88"/>
</g>
<!-- node_0x5701af1fc490 -->
<g id="node28" class="node">
<title>node_0x5701af1fc490</title>
<ellipse fill="#e8f0fe" stroke="black" cx="922" cy="-306" rx="69.59" ry="18"/>
<text text-anchor="middle" x="922" y="-302.3" font-family="Arial" font-size="14.00">STATEMENTS</text>
</g>
<!-- node_0x5701af1fc4e0&#45;&gt;node_0x5701af1fc490 -->
<g id="edge27" class="edge">
<title>node_0x5701af1fc4e0&#45;&gt;node_0x5701af1fc490</title>
<path fill="none" stroke="#555555" d="M783.26,-362.5C810.83,-351.47 848.88,-336.25 878.16,-324.54"/>
<polygon fill="#555555" stroke="#555555" points="879.39,-327.06 885.78,-321.49 877.32,-321.86 879.39,-327.06"/>
</g>
<!-- node_0x5701af1fbf50 -->
<g id="node24" class="node">
<title>node_0x5701af1fbf50</title>
<ellipse fill="#e8f0fe" stroke="black" cx="670" cy="-234" rx="27" ry="18"/>
<text text-anchor="middle" x="670" y="-230.3" font-family="Arial" font-size="14.00">y</text>
</g>
<!-- node_0x5701af1fbfc0&#45;&gt;node_0x5701af1fbf50 -->
<g id="edge23" class="edge">
<title>node_0x5701af1fbfc0&#45;&gt;node_0x5701af1fbf50</title>
<path fill="none" stroke="#555555" d="M724.93,-288.41C714.69,-278.45 701.58,-265.71 690.74,-255.17"/>
<polygon fill="#555555" stroke="#555555" points="692.67,-253.14 684.98,-249.57 688.77,-257.15 692.67,-253.14"/>
</g>
<!-- node_0x5701af1fbf00 -->
<g id="node25" class="node">
<title>node_0x5701af1fbf00</title>
<ellipse fill="#e8f0fe" stroke="black" cx="742" cy="-234" rx="27" ry="18"/>
<text text-anchor="middle" x="742" y="-230.3" font-family="Arial" font-size="14.00">+</text>
</g>
<!-- node_0x5701af1fbfc0&#45;&gt;node_0x5701af1fbf00 -->
<g id="edge24" class="edge">
<title>node_0x5701af1fbfc0&#45;&gt;node_0x5701af1fbf00</title>
<path fill="none" stroke="#555555" d="M742,-287.7C742,-279.39 742,-269.28 742,-260.14"/>
<polygon fill="#555555" stroke="#555555" points="744.8,-260.1 742,-252.1 739.2,-260.1 744.8,-260.1"/>
</g>
<!-- node_0x5701af1fbe40 -->
<g id="node26" class="node">
<title>node_0x5701af1fbe40</title>
<ellipse fill="#e8f0fe" stroke="black" cx="650" cy="-162" rx="27" ry="18"/>
<text text-anchor="middle" x="650" y="-158.3" font-family="Arial" font-size="14.00">x</text>
</g>
<!-- node_0x5701af1fbf00&#45;&gt;node_0x5701af1fbe40 -->
<g id="edge25" class="edge">
<title>node_0x5701af1fbf00&#45;&gt;node_0x5701af1fbe40</title>
<path fill="none" stroke="#555555" d="M724.69,-219.83C710.3,-208.88 689.67,-193.18 673.73,-181.06"/>
<polygon fill="#555555" stroke="#555555" points="675.29,-178.72 667.22,-176.11 671.89,-183.18 675.29,-178.72"/>
</g>
<!-- node_0x5701af1fbeb0 -->
<g id="node27" class="node">
<title>node_0x5701af1fbeb0</title>
<ellipse fill="#e8f0fe" stroke="black" cx="742" cy="-162" rx="47.39" ry="18"/>
<text text-anchor="middle" x="742" y="-158.3" font-family="Arial" font-size="14.00">2.600000</text>
</g>
<!-- node_0x5701af1fbf00&#45;&gt;node_0x5701af1fbeb0 -->
<g id="edge26" class="edge">
<title>node_0x5701af1fbf00&#45;&gt;node_0x5701af1fbeb0</title>
<path fill="none" stroke="#555555" d="M742,-215.7C742,-207.39 742,-197.28 742,-188.14"/>
<polygon fill="#555555" stroke="#555555" points="744.8,-188.1 742,-180.1 739.2,-188.1 744.8,-188.1"/>
</g>
<!-- node_0x5701af1fc440 -->
<g id="node29" class="node">
<title>node_0x5701af1fc440</title>
<ellipse fill="#e8f0fe" stroke="black" cx="937" cy="-234" rx="46.29" ry="18"/>
<text text-anchor="middle" x="937" y="-230.3" font-family="Arial" font-size="14.00">IF_ELSE</text>
</g>
<!-- node_0x5701af1fc490&#45;&gt;node_0x5701af1fc440 -->
<g id="edge28" class="edge">
<title>node_0x5701af1fc490&#45;&gt;node_0x5701af1fc440</title>
<path fill="none" stroke="#555555" d="M925.7,-287.7C927.48,-279.39 929.65,-269.28 931.61,-260.14"/>
<polygon fill="#555555" stroke="#555555" points="934.39,-260.51 933.33,-252.1 928.92,-259.34 934.39,-260.51"/>
</g>
<!-- node_0x5701af1fc0f0 -->
<g id="node30" class="node">
<title>node_0x5701af1fc0f0</title>
<ellipse fill="#e8f0fe" stroke="black" cx="834" cy="-162" rx="27" ry="18"/>
<text text-anchor="middle" x="834" y="-158.3" font-family="Arial" font-size="14.00">&gt;</text>
</g>
<!-- node_0x5701af1fc440&#45;&gt;node_0x5701af1fc0f0 -->
<g id="edge29" class="edge">
<title>node_0x5701af1fc440&#45;&gt;node_0x5701af1fc0f0</title>
<path fill="none" stroke="#555555" d="M914.9,-217.98C898.56,-206.88 876.27,-191.73 859.23,-180.15"/>
<polygon fill="#555555" stroke="#555555" points="860.47,-177.6 852.28,-175.42 857.32,-182.24 860.47,-177.6"/>
</g>
<!-- node_0x5701af1fc270 -->
<g id="node33" class="node">
<title>node_0x5701af1fc270</title>
<ellipse fill="#e8f0fe" stroke="black" cx="952" cy="-162" rx="69.59" ry="18"/>
<text text-anchor="middle" x="952" y="-158.3" font-family="Arial" font-size="14.00">STATEMENTS</text>
</g>
<!-- node_0x5701af1fc440&#45;&gt;node_0x5701af1fc270 -->
<g id="edge32" class="edge">
<title>node_0x5701af1fc440&#45;&gt;node_0x5701af1fc270</title>
<path fill="none" stroke="#555555" d="M940.63,-216.05C942.41,-207.75 944.59,-197.58 946.56,-188.38"/>
<polygon fill="#555555" stroke="#555555" points="949.36,-188.68 948.29,-180.28 943.88,-187.51 949.36,-188.68"/>
</g>
<!-- node_0x5701af1fc3f0 -->
<g id="node37" class="node">
<title>node_0x5701af1fc3f0</title>
<ellipse fill="#e8f0fe" stroke="black" cx="1111" cy="-162" rx="69.59" ry="18"/>
<text text-anchor="middle" x="1111" y="-158.3" font-family="Arial" font-size="14.00">STATEMENTS</text>
</g>
<!-- node_0x5701af1fc440&#45;&gt;node_0x5701af1fc3f0 -->
<g id="edge36" class="edge">
<title>node_0x5701af1fc440&#45;&gt;node_0x5701af1fc3f0</title>
<path fill="none" stroke="#555555" d="M968.1,-220.49C995.77,-209.36 1036.51,-192.97 1067.42,-180.53"/>
<polygon fill="#555555" stroke="#555555" points="1068.67,-183.04 1075.05,-177.46 1066.58,-177.85 1068.67,-183.04"/>
</g>
<!-- node_0x5701af1fc030 -->
<g id="node31" class="node">
<title>node_0x5701af1fc030</title>
<ellipse fill="#e8f0fe" stroke="black" cx="736" cy="-90" rx="27" ry="18"/>
<text text-anchor="middle" x="736" y="-86.3" font-family="Arial" font-size="14.00">y</text>
</g>
<!-- node_0x5701af1fc0f0&#45;&gt;node_0x5701af1fc030 -->
<g id="edge30" class="edge">
<title>node_0x5701af1fc0f0&#45;&gt;node_0x5701af1fc030</title>
<path fill="none" stroke="#555555" d="M816.02,-148.16C800.41,-137.01 777.66,-120.76 760.41,-108.44"/>
<polygon fill="#555555" stroke="#555555" points="761.99,-106.13 753.86,-103.76 758.74,-110.69 761.99,-106.13"/>
</g>
<!-- node_0x5701af1fc0a0 -->
<g id="node32" class="node">
<title>node_0x5701af1fc0a0</title>
<ellipse fill="#e8f0fe" stroke="black" cx="833" cy="-90" rx="51.99" ry="18"/>
<text text-anchor="middle" x="833" y="-86.3" font-family="Arial" font-size="14.00">10.000000</text>
</g>
<!-- node_0x5701af1fc0f0&#45;&gt;node_0x5701af1fc0a0 -->
<g id="edge31" class="edge">
<title>node_0x5701af1fc0f0&#45;&gt;node_0x5701af1fc0a0</title>
<path fill="none" stroke="#555555" d="M833.75,-143.7C833.63,-135.39 833.49,-125.28 833.36,-116.14"/>
<polygon fill="#555555" stroke="#555555" points="836.15,-116.06 833.24,-108.1 830.56,-116.14 836.15,-116.06"/>
</g>
<!-- node_0x5701af1fc220 -->
<g id="node34" class="node">
<title>node_0x5701af1fc220</title>
<ellipse fill="#e8f0fe" stroke="black" cx="967" cy="-90" rx="63.89" ry="18"/>
<text text-anchor="middle" x="967" y="-86.3" font-family="Arial" font-size="14.00">ASSIGMENT</text>
</g>
<!-- node_0x5701af1fc270&#45;&gt;node_0x5701af1fc220 -->
<g id="edge33" class="edge">
<title>node_0x5701af1fc270&#45;&gt;node_0x5701af1fc220</title>
<path fill="none" stroke="#555555" d="M955.7,-143.7C957.48,-135.39 959.65,-125.28 961.61,-116.14"/>
<polygon fill="#555555" stroke="#555555" points="964.39,-116.51 963.33,-108.1 958.92,-115.34 964.39,-116.51"/>
</g>
<!-- node_0x5701af1fc1b0 -->
<g id="node35" class="node">
<title>node_0x5701af1fc1b0</title>
<ellipse fill="#e8f0fe" stroke="black" cx="913" cy="-18" rx="27" ry="18"/>
<text text-anchor="middle" x="913" y="-14.3" font-family="Arial" font-size="14.00">a</text>
</g>
<!-- node_0x5701af1fc220&#45;&gt;node_0x5701af1fc1b0 -->
<g id="edge34" class="edge">
<title>node_0x5701af1fc220&#45;&gt;node_0x5701af1fc1b0</title>
<path fill="none" stroke="#555555" d="M953.92,-72.05C946.65,-62.63 937.52,-50.8 929.74,-40.7"/>
<polygon fill="#555555" stroke="#555555" points="931.95,-38.98 924.84,-34.36 927.51,-42.4 931.95,-38.98"/>
</g>
<!-- node_0x5701af1fc160 -->
<g id="node36" class="node">
<title>node_0x5701af1fc160</title>
<ellipse fill="#e8f0fe" stroke="black" cx="985" cy="-18" rx="27" ry="18"/>
<text text-anchor="middle" x="985" y="-14.3" font-family="Arial" font-size="14.00">true</text>
</g>
<!-- node_0x5701af1fc220&#45;&gt;node_0x5701af1fc160 -->
<g id="edge35" class="edge">
<title>node_0x5701af1fc220&#45;&gt;node_0x5701af1fc160</title>
<path fill="none" stroke="#555555" d="M971.45,-71.7C973.6,-63.3 976.24,-53.07 978.6,-43.86"/>
<polygon fill="#555555" stroke="#555555" points="981.32,-44.55 980.6,-36.1 975.89,-43.15 981.32,-44.55"/>
</g>
<!-- node_0x5701af1fc3a0 -->
<g id="node38" class="node">
<title>node_0x5701af1fc3a0</title>
<ellipse fill="#e8f0fe" stroke="black" cx="1112" cy="-90" rx="63.89" ry="18"/>
<text text-anchor="middle" x="1112" y="-86.3" font-family="Arial" font-size="14.00">ASSIGMENT</text>
</g>
<!-- node_0x5701af1fc3f0&#45;&gt;node_0x5701af1fc3a0 -->
<g id="edge37" class="edge">
<title>node_0x5701af1fc3f0&#45;&gt;node_0x5701af1fc3a0</title>
<path fill="none" stroke="#555555" d="M1111.24,-143.7C1111.36,-135.39 1111.51,-125.28 1111.64,-116.14"/>
<polygon fill="#555555" stroke="#555555" points="1114.44,-116.14 1111.75,-108.1 1108.84,-116.06 1114.44,-116.14"/>
</g>
<!-- node_0x5701af1fc330 -->
<g id="node39" class="node">
<title>node_0x5701af1fc330</title>
<ellipse fill="#e8f0fe" stroke="black" cx="1093" cy="-18" rx="27" ry="18"/>
<text text-anchor="middle" x="1093" y="-14.3" font-family="Arial" font-size="14.00">a</text>
</g>
<!-- node_0x5701af1fc3a0&#45;&gt;node_0x5701af1fc330 -->
<g id="edge38" class="edge">
<title>node_0x5701af1fc3a0&#45;&gt;node_0x5701af1fc330</title>
<path fill="none" stroke="#555555" d="M1107.3,-71.7C1105.02,-63.3 1102.24,-53.07 1099.74,-43.86"/>
<polygon fill="#555555" stroke="#555555" points="1102.44,-43.09 1097.64,-36.1 1097.03,-44.56 1102.44,-43.09"/>
</g>
<!-- node_0x5701af1fc2e0 -->
<g id="node40" class="node">
<title>node_0x5701af1fc2e0</title>
<ellipse fill="#e8f0fe" stroke="black" cx="1167" cy="-18" rx="29.5" ry="18"/>
<text text-anchor="middle" x="1167" y="-14.3" font-family="Arial" font-size="14.00">false</text>
</g>
<!-- node_0x5701af1fc3a0&#45;&gt;node_0x5701af1fc2e0 -->
<g id="edge39" class="edge">
<title>node_0x5701af1fc3a0&#45;&gt;node_0x5701af1fc2e0</title>
<path fill="none" stroke="#555555" d="M1125.31,-72.05C1132.61,-62.76 1141.75,-51.13 1149.61,-41.13"/>
<polygon fill="#555555" stroke="#555555" points="1151.82,-42.85 1154.56,-34.83 1147.41,-39.39 1151.82,-42.85"/>
</g>
</g>
</svg>
